<svg width="563" height="392" xmlns="http://www.w3.org/2000/svg"><defs><filter x="-74%" y="-104.8%" width="248%" height="309.6%" filterUnits="objectBoundingBox" id="a"><feGaussianBlur stdDeviation="31.044" in="SourceGraphic"/></filter></defs><g fill="none" fill-rule="evenodd"><path d="M246.596 150.18c-12.11.19-24.299-.825-36.328.57-22.074 2.56-23.446 49.945-12.847 62.183 16.518 19.074 45.337 26.338 68.911 31.16 19.089 3.905 66.783 4.927 60.016-28.736-1.9-9.452-15.96-20.496-21.38-25.716" stroke="#00FF0E" stroke-width="15" opacity=".318" filter="url(#a)"/><path d="M200.31 113.408c3.317 9.428 8.985 1.9-4.264 12.092M271 208l1.5 8c66.375 0 42.655-5.788 71.041 2.688m-.16-6.459c7.863 5.75 7.279 9.265-1.163 15.614" stroke="#4A4A4A" stroke-width="2"/><path d="M386.971 230.271c-8.26 86.897-93.522 104.848-167.25 109.798-36.507 2.452-64.133.312-90.638-26.691-14.468-14.74-29.891-38.745-38.5-57.901C83.317 239.303 82.065 201.663 93 181c25.391-47.974 51.354-62.544 100-62" stroke="#4A4A4A" stroke-width="2"/><path d="M166.72 89.733c0 .274-.068.462-.204.564-.137.103-.328.154-.575.154-.642 0-1.104-.17-1.384-.513-.28-.341-.489-.792-.625-1.353a84.435 84.435 0 0 1-.123-.585 9.555 9.555 0 0 1-.103-.584 1.924 1.924 0 0 0-.082-.37 1.983 1.983 0 0 1-.082-.389c-.164.397-.366.81-.605 1.24a6.98 6.98 0 0 1-.83 1.19c-.315.363-.667.66-1.057.892-.39.233-.817.35-1.281.35-.493 0-.903-.12-1.23-.36a2.514 2.514 0 0 1-.77-.902 4.19 4.19 0 0 1-.39-1.2 7.393 7.393 0 0 1-.112-1.25c0-.93.092-1.939.276-3.026a26.67 26.67 0 0 1 .77-3.26 28.45 28.45 0 0 1 1.148-3.138 15.55 15.55 0 0 1 1.435-2.635v.02l.124-.184c.15-.206.324-.428.522-.667.199-.24.435-.359.708-.359.26 0 .485.113.677.339.191.225.328.461.41.707.355.068.642.154.861.256.219.103.39.23.513.38s.205.325.246.523c.041.198.062.413.062.646v.307c0 .11-.007.22-.021.328-.014.11-.02.24-.02.39v.41c0 .137.023.315.071.534.048.218.1.444.154.676l.144.759c.068.397.126.848.174 1.354.048.505.106 1.011.174 1.517.055.52.11 1.022.164 1.507.055.486.11.934.164 1.344l.493 3.035.061.349a7.1 7.1 0 0 0 .092.492c.035.15.052.321.052.512zm-4.696-11.792a.702.702 0 0 0-.02-.133 9.377 9.377 0 0 1-.041-.195 16.32 16.32 0 0 0-.83 2.184c-.24.787-.438 1.586-.595 2.4a24.96 24.96 0 0 0-.349 2.44 25.123 25.123 0 0 0-.113 2.307v.185c0 .055.007.11.02.164v.02c.329-.505.612-1.172.852-1.999.239-.827.44-1.695.605-2.605.164-.909.283-1.79.359-2.645.075-.855.112-1.562.112-2.123zm13.269-.902v.318c0 .102-.014.202-.041.297.205.739.393 1.48.564 2.225.17.746.338 1.487.502 2.225.082-.833.154-1.67.216-2.512.061-.84.092-1.678.092-2.512 0-.82-.027-1.658-.082-2.512a11.843 11.843 0 0 0-.41-2.45l-.082-.288a1.088 1.088 0 0 1-.062-.226 1.494 1.494 0 0 1-.02-.246c0-.15.037-.27.113-.358a.66.66 0 0 1 .276-.195c.11-.041.233-.069.37-.082.136-.014.26-.02.369-.02.341 0 .697.04 1.066.122.246.069.444.168.595.298.15.13.263.283.338.461.075.178.127.373.154.584.027.212.048.428.061.646 0 .028.004.055.01.082a31.935 31.935 0 0 1 .215 3.691 47.012 47.012 0 0 1-.317 5.476 108.563 108.563 0 0 1-.769 5.415c-.04.273-.099.553-.174.84a3.427 3.427 0 0 1-.318.8 1.824 1.824 0 0 1-.533.605c-.219.157-.492.236-.82.236-.37 0-.67-.085-.903-.256a1.957 1.957 0 0 1-.564-.657 3.283 3.283 0 0 1-.318-.892c-.068-.328-.123-.65-.164-.964l-.072-.41a4.467 4.467 0 0 0-.071-.348l-.575-2.543a53.429 53.429 0 0 1-1.035 3.199 24.408 24.408 0 0 1-.636 1.6c-.212.478-.386.806-.523.984-.15.178-.342.318-.574.42a1.715 1.715 0 0 1-.697.154c-.41 0-.766-.13-1.067-.39a1.93 1.93 0 0 1-.533-.943 9.668 9.668 0 0 1-.185-1.066.645.645 0 0 0-.01-.103.645.645 0 0 1-.01-.102 62.296 62.296 0 0 1-.451-4.584 75.442 75.442 0 0 1-.144-4.645V75.01c0-.123.007-.253.02-.39.014-.137.045-.263.093-.38a.599.599 0 0 1 .226-.276c.102-.068.25-.103.44-.103.506 0 .923.15 1.251.452.329.3.513.697.554 1.189.041.656.072 1.32.092 1.99.021.67.038 1.332.052 1.988.013.752.024 1.48.03 2.185.007.704.052 1.445.134 2.225.164-.534.321-1.087.471-1.661.15-.575.284-1.156.4-1.744.117-.588.212-1.172.288-1.753.075-.581.112-1.145.112-1.692 0-.068-.003-.126-.01-.174a1.258 1.258 0 0 1-.01-.175 1.043 1.043 0 0 1-.02-.205v-.205c0-.342.074-.594.225-.759.15-.164.41-.246.78-.246a3.22 3.22 0 0 1 1.096.246c.199.083.38.185.544.308.164.123.273.26.328.41h-.02c.068.137.109.267.122.39.014.123.021.26.021.41zm13.063-2.071a.54.54 0 0 1-.174.41c-.116.11-.256.202-.42.277a1.936 1.936 0 0 1-.503.154c-.17.027-.31.04-.42.04a2.14 2.14 0 0 1-.472-.05c-.15-.035-.3-.072-.451-.113-.15-.041-.294-.08-.43-.113a1.77 1.77 0 0 0-.431-.052c-.205 0-.41.035-.616.103a1.91 1.91 0 0 0-.553.287 1.487 1.487 0 0 0-.4.451 1.168 1.168 0 0 0-.154.595c0 .328.068.653.205.974.137.321.318.646.544.974.225.328.485.66.779.995.294.335.605.673.933 1.015.396.438.796.882 1.2 1.333.403.451.765.923 1.087 1.415a7.95 7.95 0 0 1 .79 1.559c.204.547.307 1.12.307 1.722 0 .52-.086.985-.257 1.395-.17.41-.41.759-.717 1.046a3.218 3.218 0 0 1-1.108.666 4.07 4.07 0 0 1-1.405.236 3.62 3.62 0 0 1-.625-.082c-.28-.055-.598-.133-.954-.236a32.417 32.417 0 0 1-1.097-.338 9.183 9.183 0 0 1-1.025-.4 4.679 4.679 0 0 1-.759-.43c-.198-.144-.297-.278-.297-.4 0-.165.075-.332.225-.503a2.99 2.99 0 0 1 .533-.472 3.56 3.56 0 0 1 .646-.359c.226-.095.414-.143.564-.143.205 0 .42.048.646.143.226.096.455.205.687.329.26.136.523.26.79.369.267.109.543.164.83.164.22 0 .346-.075.38-.226.034-.15.051-.321.051-.513 0-.478-.082-.933-.246-1.363a7.039 7.039 0 0 0-.636-1.262c-.26-.41-.56-.81-.902-1.2-.342-.389-.684-.775-1.025-1.158a53.422 53.422 0 0 1-1.036-1.148 10.086 10.086 0 0 1-.892-1.18 6.402 6.402 0 0 1-.626-1.24 3.86 3.86 0 0 1-.235-1.354c0-.588.13-1.118.39-1.59.259-.47.597-.878 1.014-1.22a4.628 4.628 0 0 1 1.415-.789 4.774 4.774 0 0 1 1.59-.277c.177 0 .45.038.82.113.37.075.731.181 1.087.318.355.137.67.3.943.492.274.191.41.403.41.636zm5.23 14.93c0 .314-.092.519-.277.615a1.432 1.432 0 0 1-.666.143 4.58 4.58 0 0 1-.687-.051 2.217 2.217 0 0 1-.636-.195 1.596 1.596 0 0 1-.513-.39 1.376 1.376 0 0 1-.297-.635 12.435 12.435 0 0 1-.328-2.41 69.948 69.948 0 0 1-.041-2.43v-2.523c0-1.148.047-2.34.143-3.578.096-1.237.198-2.43.308-3.579 0-.04.007-.089.02-.143a.56.56 0 0 0 .02-.123c.014-.15.035-.315.062-.493a1.99 1.99 0 0 1 .134-.481.933.933 0 0 1 .266-.36.703.703 0 0 1 .462-.143c.218 0 .427.045.625.133.198.09.373.205.523.349.15.144.27.318.359.523.089.205.133.417.133.636 0 .273-.01.557-.03.85-.021.295-.045.578-.072.852a6.733 6.733 0 0 0-.052.43l-.03.472c.164-.287.352-.577.564-.871.212-.294.447-.554.707-.78.26-.225.544-.41.851-.553.308-.144.64-.216.995-.216s.65.058.882.175c.232.116.417.273.553.471.137.199.233.434.288.708.054.273.082.56.082.861a14.42 14.42 0 0 1-.041 1.087 14.242 14.242 0 0 0-.01 2.082c.02.32.044.66.071 1.015.137-.451.304-.964.503-1.538a22.526 22.526 0 0 1 1.58-3.538 9.873 9.873 0 0 1 1.045-1.548 5.362 5.362 0 0 1 1.22-1.097 2.51 2.51 0 0 1 1.374-.42c.752 0 1.282.218 1.59.655.307.438.46.998.46 1.682a9.414 9.414 0 0 1-.081 1.21c-.069.738-.12 1.497-.154 2.276-.034.78-.052 1.538-.052 2.277v.39c0 .956.041 1.859.124 2.706.082.848.246 1.744.492 2.687l.164.554c.054.191.12.403.195.635.075.233.14.458.194.677.055.219.103.424.144.615.041.192.061.342.061.452 0 .287-.102.478-.307.574a1.487 1.487 0 0 1-.636.143c-.137 0-.294-.003-.472-.01a3.311 3.311 0 0 1-.523-.061 2.422 2.422 0 0 1-.492-.154 1.05 1.05 0 0 1-.38-.267v.02a1.072 1.072 0 0 1-.266-.45 3.751 3.751 0 0 1-.123-.534l-.04-.184a57.077 57.077 0 0 1-.483-1.99 21.749 21.749 0 0 1-.492-3.589 40.574 40.574 0 0 1-.051-2.173c0-.698.03-1.408.092-2.133.062-.725.127-1.436.195-2.133a3.115 3.115 0 0 1 .041-.472c-.52.807-.974 1.692-1.364 2.656-.39.964-.738 1.952-1.046 2.964a40.775 40.775 0 0 0-.8 3.045 112.932 112.932 0 0 0-.604 2.902c0 .013.03.092.092.236.061.143.123.307.184.492.062.184.12.362.175.533.054.17.082.284.082.338 0 .315-.103.506-.308.575a1.997 1.997 0 0 1-.636.102c-.164 0-.341-.007-.533-.02a2.642 2.642 0 0 1-1.076-.318 1.01 1.01 0 0 1-.38-.38c-.082-.136-.178-.461-.287-.974a57.497 57.497 0 0 1-.697-4.03c-.11-.792-.212-1.544-.308-2.255a60.054 60.054 0 0 1-.225-1.867 12.978 12.978 0 0 1-.083-1.086v-.308a18.42 18.42 0 0 0-1.086 3.035 27.975 27.975 0 0 0-.657 3.179l-.082.369c-.027.11-.048.215-.061.318a2.25 2.25 0 0 0-.02.297c0 .15.016.335.05.554.035.219.08.458.134.718.068.355.126.72.174 1.097.048.376.072.748.072 1.117zm23.46-8.306c0 1.19-.098 2.375-.296 3.558a9.81 9.81 0 0 1-1.22 3.353 7.48 7.48 0 0 1-.657.913c-.246.293-.516.56-.81.8-.294.239-.615.43-.964.574a2.854 2.854 0 0 1-1.097.215c-.602 0-1.125-.14-1.569-.42a4.016 4.016 0 0 1-1.148-1.108 6.69 6.69 0 0 1-.8-1.559 11.491 11.491 0 0 1-.492-1.784 18.532 18.532 0 0 1-.318-3.292c0-.491.02-1.031.061-1.62.041-.587.113-1.189.216-1.804.102-.615.239-1.224.41-1.825.17-.602.393-1.166.666-1.692.274-.526.602-.998.985-1.415a4.419 4.419 0 0 1 1.333-.995v.02a2.776 2.776 0 0 1 1.312-.348c.274 0 .486.058.636.174.15.117.219.311.205.585.752.137 1.36.499 1.825 1.087a6.514 6.514 0 0 1 1.077 2.05c.253.78.424 1.58.513 2.4.088.82.133 1.531.133 2.133zm-4.634-5.127c-.232 0-.451-.089-.656-.267-.26.397-.479.851-.656 1.364-.178.513-.318 1.04-.42 1.58-.103.54-.175 1.083-.216 1.63-.041.546-.062 1.06-.062 1.538 0 .396.02.905.062 1.527.04.622.12 1.248.236 1.877a9.8 9.8 0 0 0 .492 1.764c.212.546.489.95.83 1.21.424-.247.776-.64 1.057-1.18.28-.54.502-1.131.666-1.774.164-.642.277-1.292.338-1.948a18.43 18.43 0 0 0 .093-1.682c0-.341-.02-.786-.062-1.333a18.26 18.26 0 0 0-.205-1.67 9.82 9.82 0 0 0-.4-1.59c-.17-.492-.386-.862-.646-1.108a1.439 1.439 0 0 1-.45.062zm9.495 13.432c0 .315-.092.52-.277.616a1.432 1.432 0 0 1-.666.143 4.58 4.58 0 0 1-.687-.051 2.217 2.217 0 0 1-.636-.195 1.596 1.596 0 0 1-.513-.39 1.376 1.376 0 0 1-.297-.635c-.191-.82-.3-1.624-.328-2.41a69.948 69.948 0 0 1-.041-2.43v-2.523c0-1.148.048-2.34.143-3.578.096-1.237.199-2.43.308-3.579 0-.04.007-.089.02-.143a.56.56 0 0 0 .021-.123c.014-.15.034-.315.062-.493.027-.177.071-.338.133-.481a.933.933 0 0 1 .267-.36.703.703 0 0 1 .461-.143c.219 0 .427.045.625.133.199.09.373.205.523.349a1.615 1.615 0 0 1 .493 1.159 15.888 15.888 0 0 1-.082 1.558 2.733 2.733 0 0 1-.041.451c.19-.382.41-.782.656-1.2.246-.416.53-.799.85-1.148a4.33 4.33 0 0 1 1.067-.85c.39-.22.824-.329 1.303-.329.396 0 .724.062.984.185s.468.297.625.523c.158.225.267.488.328.79.062.3.093.621.093.963 0 .465-.014.933-.041 1.405l-.082 1.405c-.041.478-.075.95-.103 1.415-.027.465-.04.936-.04 1.415 0 .574.013 1.165.04 1.774.028.608.069 1.19.123 1.743.055.554.116 1.053.185 1.497.068.444.137.79.205 1.036.055.205.113.44.174.707.062.267.123.54.185.82.061.28.113.55.154.81.04.26.061.493.061.698 0 .3-.12.492-.359.574a2.17 2.17 0 0 1-.707.123c-.233 0-.496-.017-.79-.051a2.22 2.22 0 0 1-.79-.236 1.429 1.429 0 0 1-.563-.862 6.904 6.904 0 0 1-.175-1.086l-.061-.554-.164-1.292a55.703 55.703 0 0 1-.349-3.763 34.074 34.074 0 0 1-.061-2.02c0-.588.024-1.156.071-1.702.048-.547.1-1.101.154-1.662.028-.287.048-.52.062-.697.013-.178.034-.41.061-.697-.273.437-.547.95-.82 1.538-.274.588-.533 1.2-.78 1.835a38.706 38.706 0 0 0-.666 1.856 20.806 20.806 0 0 0-.461 1.58l-.123.45a7.757 7.757 0 0 0-.175.657 2.887 2.887 0 0 0-.071.615c0 .246.013.53.04.851.028.321.062.626.103.913.041.342.089.69.144 1.046 0 .027.013.116.04.266.028.15.055.328.083.533.027.206.051.42.071.646.021.226.031.428.031.605z" fill="#BD10E0"/><path d="M226.54 122.094c0 .078-.022.17-.065.275a2.568 2.568 0 0 1-.164.328 7.068 7.068 0 0 1-.44.662l-.176.246-.175.305-.153.281c.008.157.02.325.035.504l.047.516c.086.805.162 1.625.229 2.46.066.837.1 1.657.1 2.462 0 .43-.036.865-.106 1.306-.07.442-.201.84-.393 1.196a2.425 2.425 0 0 1-.79.873c-.337.226-.766.34-1.29.34-.36 0-.664-.067-.914-.2a1.662 1.662 0 0 1-.603-.533 2.307 2.307 0 0 1-.334-.78 4.004 4.004 0 0 1-.106-.925c0-.633.074-1.273.223-1.922.148-.648.342-1.289.58-1.922.238-.632.51-1.252.814-1.857.305-.605.614-1.186.926-1.74v-.053a.703.703 0 0 0-.012-.1 8.23 8.23 0 0 1-.345.58c-.13.2-.274.377-.434.534a2.29 2.29 0 0 1-.527.386 1.341 1.341 0 0 1-.639.153c-.328 0-.601-.078-.82-.235a1.712 1.712 0 0 1-.522-.597 2.788 2.788 0 0 1-.275-.797 4.42 4.42 0 0 1-.082-.82c0-.297.017-.59.053-.88.035-.288.076-.57.123-.843.078-.438.177-.912.299-1.424.12-.512.271-1.02.45-1.523.18-.504.39-.979.628-1.424.238-.446.517-.824.838-1.137l.093-.082c.102-.102.219-.201.352-.299a.685.685 0 0 1 .41-.146c.086 0 .162.023.229.07a.632.632 0 0 1 .17.182c.046.074.083.154.11.24a.811.811 0 0 1 .042.246.572.572 0 0 1-.106.305h.024c.476 0 .797.218.96.656a.732.732 0 0 1 .194.281c.043.11.065.227.065.352a1.97 1.97 0 0 1-.047.41c-.016.07-.028.137-.036.2a1.421 1.421 0 0 0-.011.175 33.899 33.899 0 0 0 .047 1.5c.015.289.033.572.052.85.02.277.037.517.053.72a.98.98 0 0 1 .193-.187.432.432 0 0 1 .264-.082.63.63 0 0 1 .299.093 1.587 1.587 0 0 1 .563.533.56.56 0 0 1 .1.288zm-3.224-4.828c0-.047.002-.098.006-.153a1.03 1.03 0 0 1 .03-.175l-.082.105c-.063.07-.122.137-.176.2a1.916 1.916 0 0 0-.153.198c-.203.297-.38.682-.533 1.155-.152.472-.28.968-.38 1.488-.102.52-.178 1.03-.23 1.53-.05.5-.075.929-.075 1.288 0 .18.004.36.011.54.008.18.047.355.118.527.109-.117.199-.244.27-.381.07-.137.136-.28.198-.428.172-.383.32-.828.446-1.336a16.42 16.42 0 0 0 .304-1.57 25.204 25.204 0 0 0 .246-2.988zm.891 12.515c0-.531-.012-1.029-.035-1.494a39.943 39.943 0 0 0-.106-1.494c-.14.336-.283.697-.427 1.084a13.797 13.797 0 0 0-.651 2.35c-.07.39-.105.761-.105 1.113v.082c0 .18.012.373.035.58a.862.862 0 0 0 .223.51h.129a.533.533 0 0 0 .392-.158c.106-.106.193-.24.264-.405.07-.164.125-.347.164-.55a5.43 5.43 0 0 0 .082-.61 11.246 11.246 0 0 0 .035-1.008zm7.617-4.933c0 .156-.039.263-.117.322a.537.537 0 0 1-.328.088c-.367 0-.631-.098-.791-.293-.16-.195-.28-.453-.358-.774a48.24 48.24 0 0 1-.07-.334 5.461 5.461 0 0 1-.058-.334 1.1 1.1 0 0 0-.047-.21 1.133 1.133 0 0 1-.047-.223 6.896 6.896 0 0 1-.346.709 3.988 3.988 0 0 1-.475.68 2.48 2.48 0 0 1-.603.51 1.411 1.411 0 0 1-.732.198c-.282 0-.516-.068-.704-.205a1.436 1.436 0 0 1-.439-.515 2.394 2.394 0 0 1-.223-.686 4.224 4.224 0 0 1-.064-.715c0-.53.053-1.107.158-1.728a16.257 16.257 0 0 1 1.096-3.656c.25-.575.523-1.077.82-1.506v.011l.07-.105a7.64 7.64 0 0 1 .3-.38.51.51 0 0 1 .404-.206c.148 0 .277.065.386.193.11.13.188.264.235.405.203.039.367.088.492.146a.82.82 0 0 1 .293.217c.07.086.117.186.14.299.024.113.036.236.036.369v.176c0 .062-.004.125-.012.187a1.825 1.825 0 0 0-.012.223v.234c0 .078.014.18.041.305.027.125.057.254.088.387l.082.433c.04.227.072.485.1.774.027.289.06.578.1.867.03.297.062.584.093.861.031.278.063.533.094.768l.281 1.734.035.2c.016.101.033.195.053.28.02.087.03.184.03.294zm-2.683-6.739a.401.401 0 0 0-.012-.076 5.357 5.357 0 0 1-.024-.111c-.18.383-.337.799-.474 1.248-.137.45-.25.906-.34 1.371a14.356 14.356 0 0 0-.264 2.713v.105c0 .032.004.063.012.094v.012c.188-.29.35-.67.486-1.143.137-.472.252-.968.346-1.488a16.824 16.824 0 0 0 .27-2.725zm5.894 6.598a.382.382 0 0 1-.205.352.628.628 0 0 1-.187.064 1.095 1.095 0 0 1-.194.018 2.003 2.003 0 0 1-.633-.117 1.417 1.417 0 0 1-.298-.147.603.603 0 0 1-.206-.217c-.046-.078-.087-.224-.123-.44a9.548 9.548 0 0 1-.087-.75c-.024-.284-.043-.59-.059-.913-.016-.325-.03-.635-.041-.932a35.139 35.139 0 0 1-.03-1.336c0-.547.01-1.076.03-1.588.02-.512.041-1.037.064-1.576a.596.596 0 0 0-.117.012.596.596 0 0 1-.117.011 3.971 3.971 0 0 1-.633.047.83.83 0 0 1-.351-.07c-.102-.047-.153-.152-.153-.316 0-.196.043-.352.13-.47a.899.899 0 0 1 .327-.275c.133-.066.278-.113.434-.14a6.755 6.755 0 0 1 .504-.07.122.122 0 0 1 .047-.006 47.86 47.86 0 0 0 .047-.797c.007-.258.02-.533.035-.826.015-.293.031-.575.047-.844.015-.27.035-.508.058-.715a3.56 3.56 0 0 1 .07-.44.904.904 0 0 1 .135-.246c.051-.062.147-.093.287-.093.313 0 .555.101.727.304.172.204.258.454.258.75 0 .344-.01.688-.03 1.032-.019.343-.037.691-.052 1.043l-.035.597c.195-.023.39-.058.586-.105.187-.04.376-.074.568-.106a3.6 3.6 0 0 1 .557-.047c.156 0 .277.041.363.124.086.082.129.2.129.357 0 .172-.032.34-.094.504a.701.701 0 0 1-.328.375h.012a1.51 1.51 0 0 1-.282.064 9.694 9.694 0 0 1-.533.076l-.586.07c-.191.024-.334.04-.428.048h-.011a74.667 74.667 0 0 0-.047 2.59c0 .601.017 1.24.053 1.916.035.675.095 1.318.181 1.927l.094.528c.031.132.059.263.082.392.023.13.035.256.035.381zm7.664-.34c0 .156-.05.27-.152.34a.643.643 0 0 1-.375.106 1.51 1.51 0 0 1-.293-.03c-.102-.02-.2-.04-.293-.064a1.118 1.118 0 0 1-.38-.176.741.741 0 0 1-.294-.54 7.649 7.649 0 0 1-.035-.468 32.947 32.947 0 0 1-.094-3.516c.004-.226.01-.453.018-.68a39.816 39.816 0 0 0 .023-1.347 1.49 1.49 0 0 0-.023-.27 5.612 5.612 0 0 0-.533.99c-.153.364-.288.74-.405 1.126a14.12 14.12 0 0 0-.299 1.16c-.082.387-.15.756-.205 1.107l-.035.247-.117.837a6.283 6.283 0 0 0-.059.85c0 .117.02.246.059.387.016.062.03.123.041.181.012.059.018.131.018.217 0 .188-.047.315-.141.381a.636.636 0 0 1-.375.1c-.094 0-.197-.008-.31-.024a1.823 1.823 0 0 1-.329-.076 1.588 1.588 0 0 1-.298-.135.642.642 0 0 1-.223-.21c-.047-.102-.092-.372-.135-.81-.043-.437-.082-.98-.117-1.628a154.38 154.38 0 0 1-.1-2.186 381.853 381.853 0 0 1-.158-5.021c-.02-.836-.035-1.606-.047-2.309l-.03-1.834c-.007-.52-.01-.884-.01-1.095 0-.157.02-.3.064-.428.043-.13.166-.194.369-.194.21 0 .41.05.597.147a.876.876 0 0 1 .41.451c.016.031.032.158.047.381.016.223.032.508.047.855.016.348.032.747.047 1.196a617.995 617.995 0 0 1 .094 2.842c.016.484.031.937.047 1.359l.058 1.734c.094-.242.211-.496.352-.761.14-.266.303-.508.486-.727.184-.219.391-.398.621-.539.23-.14.487-.211.768-.211.344 0 .613.09.809.27.195.18.341.402.439.668.098.265.158.55.182.855a10.929 10.929 0 0 1 .029 1.29c-.004.148-.01.296-.018.444a19.048 19.048 0 0 0-.023.926c0 .54.012 1.092.035 1.658.024.567.082 1.123.176 1.67l.023.164a.859.859 0 0 1 .036.164c.007.063.011.121.011.176zm5.543-1.512c0 .235-.064.477-.193.727-.13.25-.295.479-.498.686a2.65 2.65 0 0 1-.697.51 1.71 1.71 0 0 1-.78.199c-.367 0-.683-.073-.949-.217a2.25 2.25 0 0 1-.691-.586 3.194 3.194 0 0 1-.475-.838 6.26 6.26 0 0 1-.287-.967 7.956 7.956 0 0 1-.147-.996 11.144 11.144 0 0 1-.04-.908 9.965 9.965 0 0 1 .181-1.828 7.29 7.29 0 0 1 .275-1.02c.118-.336.264-.637.44-.902.176-.266.387-.48.633-.645.246-.164.529-.246.85-.246.25 0 .474.051.673.153.2.101.367.236.504.404.137.168.242.361.316.58.075.219.112.445.112.68 0 .304-.07.636-.211.996-.14.36-.322.707-.545 1.043a5.491 5.491 0 0 1-.75.908c-.277.27-.553.474-.826.615.015.14.047.346.093.615.047.27.112.537.194.803s.18.496.293.692c.113.195.248.292.404.292a.319.319 0 0 0 .205-.07.693.693 0 0 0 .158-.187 1.54 1.54 0 0 0 .123-.258c.036-.094.069-.184.1-.27l.07-.164a.573.573 0 0 0 .03-.047l.017-.035c.055-.101.108-.195.158-.281a.691.691 0 0 1 .217-.223h-.012a.167.167 0 0 1 .1-.052.6.6 0 0 1 .38.076 1.247 1.247 0 0 1 .493.475.585.585 0 0 1 .082.286zm-2.32-5.168c0-.078-.004-.16-.012-.246a.62.62 0 0 0-.058-.222 2.07 2.07 0 0 0-.288.474c-.082.184-.15.375-.205.575a7.073 7.073 0 0 0-.21 1.166c.203-.243.382-.518.538-.827.157-.308.235-.615.235-.92zm3.95 7.5c-.118 0-.245-.015-.382-.046a1.377 1.377 0 0 1-.386-.153 1.047 1.047 0 0 1-.305-.263.602.602 0 0 1-.123-.381c0-.219.01-.436.03-.65.019-.215.04-.428.064-.64v.012l.07-.785c.023-.281.043-.59.058-.926a80.3 80.3 0 0 0 .082-2.976c0-.164-.001-.33-.005-.498a21.928 21.928 0 0 1-.006-.51 9.553 9.553 0 0 1-.012-.498v-.51a1.1 1.1 0 0 1 .064-.404c.043-.105.166-.158.37-.158.18 0 .369.047.568.14.2.094.338.227.416.399h-.012c.04.086.069.224.088.416.02.191.033.361.041.51.133-.204.283-.418.451-.645.168-.226.35-.435.545-.627.196-.191.403-.35.621-.474.22-.125.453-.188.703-.188.329 0 .579.082.75.246.172.164.297.37.375.615.079.246.122.508.13.786.007.277.011.529.011.755v.094c0 .094-.002.186-.006.276a.81.81 0 0 1-.047.246.378.378 0 0 1-.14.181.47.47 0 0 1-.276.07 1.645 1.645 0 0 1-.79-.21 1.126 1.126 0 0 1-.311-.264.624.624 0 0 1-.14-.37v-.187c0-.062.003-.125.01-.187 0-.04.003-.088.007-.147.004-.058.006-.115.006-.17-.25.25-.471.559-.662.926a9.848 9.848 0 0 0-.516 1.172c-.152.414-.283.83-.393 1.248-.11.418-.203.795-.28 1.131v.035c-.024.242-.04.48-.048.715l-.023.727a67.16 67.16 0 0 1-.03.855c-.011.29-.033.57-.064.844a.594.594 0 0 1-.135.345c-.074.082-.197.124-.369.124zm10.136-.246c0 .18-.053.297-.158.352a.818.818 0 0 1-.381.082c-.133 0-.264-.01-.393-.03a1.267 1.267 0 0 1-.363-.11.912.912 0 0 1-.293-.223.786.786 0 0 1-.17-.364 7.147 7.147 0 0 1-.188-1.377 39.97 39.97 0 0 1-.023-1.388v-1.442c0-.656.027-1.337.082-2.045.055-.707.113-1.388.176-2.044 0-.024.004-.051.012-.082a.32.32 0 0 0 .011-.07c.008-.087.02-.18.035-.282.016-.102.041-.193.077-.275a.533.533 0 0 1 .152-.206.402.402 0 0 1 .264-.082c.125 0 .244.026.357.077.113.05.213.117.299.199a.905.905 0 0 1 .205.299c.05.117.076.238.076.363 0 .156-.006.318-.017.486-.012.168-.026.33-.041.487a3.704 3.704 0 0 0-.03.246l-.017.27c.093-.165.2-.33.322-.499.121-.168.256-.316.404-.445a2.08 2.08 0 0 1 .487-.317c.175-.082.365-.123.568-.123.203 0 .371.034.504.1a.822.822 0 0 1 .316.27c.078.113.133.248.164.404.032.156.047.32.047.492a8.24 8.24 0 0 1-.023.621 8.137 8.137 0 0 0-.006 1.19l.04.58c.079-.258.175-.551.288-.88a12.801 12.801 0 0 1 .902-2.02 5.58 5.58 0 0 1 .598-.885c.215-.258.447-.467.697-.627.25-.16.512-.24.785-.24.43 0 .733.124.909.374.175.25.263.57.263.961a5.38 5.38 0 0 1-.047.692 29.7 29.7 0 0 0-.117 2.602v.222c0 .547.024 1.062.07 1.547.047.484.141.996.282 1.535l.094.316c.03.11.068.23.11.364.044.132.081.261.112.386s.059.243.082.352c.024.11.035.195.035.258 0 .164-.058.273-.175.328a.85.85 0 0 1-.364.082c-.078 0-.168-.002-.27-.006a1.892 1.892 0 0 1-.298-.035 1.384 1.384 0 0 1-.281-.088.6.6 0 0 1-.217-.152v.011a.613.613 0 0 1-.152-.257 2.143 2.143 0 0 1-.07-.305l-.024-.106c-.11-.422-.201-.8-.276-1.136a12.428 12.428 0 0 1-.281-2.05c-.02-.36-.03-.775-.03-1.243 0-.399.018-.805.054-1.22.035-.413.072-.82.111-1.218a1.78 1.78 0 0 1 .023-.27 9.207 9.207 0 0 0-.779 1.518 20.065 20.065 0 0 0-.598 1.694 23.3 23.3 0 0 0-.457 1.74 64.53 64.53 0 0 0-.345 1.658c0 .008.017.053.052.135.036.082.07.176.106.281l.1.305a.833.833 0 0 1 .046.193c0 .18-.058.29-.175.328-.118.04-.239.059-.364.059-.093 0-.195-.004-.304-.012a1.51 1.51 0 0 1-.616-.182.577.577 0 0 1-.216-.216c-.047-.078-.102-.264-.164-.557a31.557 31.557 0 0 1-.399-2.303l-.176-1.289a34.53 34.53 0 0 1-.129-1.066 7.416 7.416 0 0 1-.046-.621v-.176c-.25.539-.457 1.117-.622 1.734a16.048 16.048 0 0 0-.375 1.817l-.046.21a1.647 1.647 0 0 0-.047.352c0 .086.01.192.029.317.02.125.045.261.076.41.04.203.072.412.1.627.027.215.04.427.04.638zm12.844-2.086c0 .235-.065.477-.194.727s-.295.479-.498.686a2.65 2.65 0 0 1-.697.51 1.71 1.71 0 0 1-.78.199c-.367 0-.683-.073-.949-.217a2.25 2.25 0 0 1-.691-.586 3.194 3.194 0 0 1-.475-.838 6.26 6.26 0 0 1-.287-.967 7.956 7.956 0 0 1-.146-.996 11.144 11.144 0 0 1-.041-.908 9.965 9.965 0 0 1 .181-1.828 7.29 7.29 0 0 1 .276-1.02 3.96 3.96 0 0 1 .44-.902c.175-.266.386-.48.632-.645.246-.164.53-.246.85-.246.25 0 .474.051.673.153.2.101.368.236.504.404.137.168.243.361.317.58.074.219.111.445.111.68 0 .304-.07.636-.21.996a5.53 5.53 0 0 1-.546 1.043 5.491 5.491 0 0 1-.75.908c-.277.27-.552.474-.826.615.016.14.047.346.094.615.047.27.111.537.193.803s.18.496.293.692c.113.195.248.292.404.292a.319.319 0 0 0 .206-.07.693.693 0 0 0 .158-.187 1.54 1.54 0 0 0 .123-.258l.1-.27.07-.164a.573.573 0 0 0 .029-.047l.018-.035c.054-.101.107-.195.158-.281a.691.691 0 0 1 .217-.223h-.012a.167.167 0 0 1 .1-.052.6.6 0 0 1 .38.076c.102.054.196.123.282.205.086.082.156.172.21.27a.585.585 0 0 1 .083.286zm-2.32-5.168c0-.078-.005-.16-.012-.246a.62.62 0 0 0-.06-.222 2.07 2.07 0 0 0-.286.474c-.082.184-.15.375-.205.575a7.074 7.074 0 0 0-.21 1.166c.202-.243.382-.518.538-.827.156-.308.234-.615.234-.92zm5.448 7.02a.382.382 0 0 1-.205.352.628.628 0 0 1-.187.064 1.092 1.092 0 0 1-.193.018 2.003 2.003 0 0 1-.633-.117 1.417 1.417 0 0 1-.3-.147.603.603 0 0 1-.204-.217c-.047-.078-.088-.224-.123-.44a9.548 9.548 0 0 1-.088-.75c-.024-.284-.043-.59-.059-.913-.015-.325-.029-.635-.04-.932a35.14 35.14 0 0 1-.03-1.336c0-.547.01-1.076.03-1.588.019-.512.04-1.037.064-1.576a.596.596 0 0 0-.117.012.596.596 0 0 1-.118.011 3.971 3.971 0 0 1-.632.047.83.83 0 0 1-.352-.07c-.102-.047-.152-.152-.152-.316 0-.196.043-.352.129-.47a.899.899 0 0 1 .328-.275 1.56 1.56 0 0 1 .433-.14 6.755 6.755 0 0 1 .504-.07.122.122 0 0 1 .047-.006 47.862 47.862 0 0 0 .047-.797c.008-.258.02-.533.035-.826.016-.293.031-.575.047-.844.016-.27.035-.508.059-.715.023-.207.046-.353.07-.44a.904.904 0 0 1 .135-.246c.05-.062.146-.093.287-.093.312 0 .554.101.726.304.172.204.258.454.258.75 0 .344-.01.688-.03 1.032-.019.343-.036.691-.052 1.043l-.035.597c.195-.023.39-.058.586-.105.187-.04.377-.074.568-.106a3.61 3.61 0 0 1 .557-.047c.156 0 .277.041.363.124.086.082.129.2.129.357 0 .172-.031.34-.094.504a.701.701 0 0 1-.328.375h.012a1.51 1.51 0 0 1-.281.064 9.694 9.694 0 0 1-.534.076l-.586.07c-.19.024-.334.04-.427.048h-.012a74.667 74.667 0 0 0-.047 2.59c0 .601.018 1.24.053 1.916.035.675.096 1.318.182 1.927l.093.528c.032.132.059.263.082.392.024.13.035.256.035.381zm3.176.48c-.117 0-.244-.015-.38-.046a1.377 1.377 0 0 1-.387-.153 1.047 1.047 0 0 1-.305-.263.602.602 0 0 1-.123-.381c0-.219.01-.436.03-.65.019-.215.04-.428.064-.64v.012l.07-.785c.023-.281.043-.59.059-.926a80.282 80.282 0 0 0 .082-2.976c0-.164-.002-.33-.006-.498a21.923 21.923 0 0 1-.006-.51 9.554 9.554 0 0 1-.012-.498v-.51c0-.164.022-.299.065-.404.043-.105.166-.158.369-.158.18 0 .369.047.568.14.2.094.338.227.416.399h-.012c.04.086.069.224.088.416.02.191.034.361.041.51.133-.204.284-.418.452-.645a5.27 5.27 0 0 1 .544-.627c.196-.191.403-.35.622-.474.218-.125.453-.188.703-.188.328 0 .578.082.75.246.172.164.297.37.375.615.078.246.12.508.129.786.007.277.011.529.011.755v.094c0 .094-.002.186-.006.276a.81.81 0 0 1-.046.246.378.378 0 0 1-.141.181.47.47 0 0 1-.275.07 1.645 1.645 0 0 1-.791-.21 1.126 1.126 0 0 1-.311-.264.624.624 0 0 1-.14-.37v-.187c0-.062.003-.125.011-.187 0-.04.002-.088.006-.147.004-.058.006-.115.006-.17-.25.25-.47.559-.662.926a9.848 9.848 0 0 0-.516 1.172c-.152.414-.283.83-.393 1.248-.109.418-.203.795-.28 1.131v.035c-.024.242-.04.48-.048.715l-.023.727c-.008.28-.018.566-.03.855-.011.29-.033.57-.064.844a.594.594 0 0 1-.135.345c-.074.082-.197.124-.369.124zm6.176-10.042c0 .132-.03.228-.088.287-.058.058-.166.088-.322.088a3.826 3.826 0 0 1-.78-.117 1.42 1.42 0 0 1-.398-.165c-.113-.07-.17-.156-.17-.258 0-.03.012-.119.035-.263.024-.145.053-.299.088-.463l.094-.445c.027-.133.049-.207.064-.223v.012a.25.25 0 0 1 .141-.118.595.595 0 0 1 .164-.023 2.658 2.658 0 0 1 .616.111c.113.036.216.08.31.135.094.055.152.113.176.176a.824.824 0 0 1 .04.252c.005.105.003.201-.005.287 0 .031-.002.068-.006.111a1.18 1.18 0 0 0 0 .217c.004.04.01.078.018.117a1.841 1.841 0 0 1 .023.281zm.434 9.34c0 .18-.041.306-.123.38-.082.074-.213.112-.393.112a1.5 1.5 0 0 1-.31-.036 2.045 2.045 0 0 1-.335-.1 1.606 1.606 0 0 1-.304-.157.677.677 0 0 1-.211-.211c-.031-.047-.059-.192-.082-.434a14.56 14.56 0 0 1-.053-.902c-.012-.36-.023-.762-.035-1.207-.012-.446-.02-.895-.024-1.348-.003-.453-.005-.894-.005-1.324v-2.028c0-.078.002-.156.005-.234a.546.546 0 0 1 .047-.205.356.356 0 0 1 .13-.146.453.453 0 0 1 .251-.06c.344 0 .596.097.756.288.16.191.26.447.299.768.039.476.068.95.088 1.423.02.473.037.952.053 1.436.015.438.029.87.04 1.295a19.651 19.651 0 0 0 .1 1.517c.008.079.02.157.035.235l.047.463c.016.152.024.31.024.474zm5.683-2.11c0 .164-.027.332-.082.504a4.59 4.59 0 0 1-.187.492 4.611 4.611 0 0 1-.34.662 3.015 3.015 0 0 1-.457.574 2.094 2.094 0 0 1-.586.405 1.733 1.733 0 0 1-.738.152c-.485 0-.887-.121-1.207-.363a2.626 2.626 0 0 1-.762-.914 4.17 4.17 0 0 1-.393-1.207 7.44 7.44 0 0 1-.111-1.243c0-.289.012-.63.035-1.025.024-.394.068-.803.135-1.225a8.75 8.75 0 0 1 .293-1.253c.129-.414.295-.784.498-1.108.203-.324.451-.588.744-.79.293-.204.643-.306 1.049-.306a3.104 3.104 0 0 1 .861.182c.16.059.301.137.422.234.121.098.182.21.182.334a.297.297 0 0 1-.159.27 1.15 1.15 0 0 1-.375.135 2.774 2.774 0 0 1-.445.047 13.93 13.93 0 0 1-.369.005h-.21c-.22.196-.4.483-.54.862s-.25.783-.328 1.213a14.299 14.299 0 0 0-.21 2.297c-.001.375.028.744.087 1.107.058.363.178.705.357 1.025.04.07.096.15.17.24.074.09.158.135.252.135.07 0 .143-.058.217-.175.074-.118.143-.254.205-.41.063-.157.113-.31.152-.458.04-.148.067-.257.082-.328a.436.436 0 0 0 .012-.105v-.117c0-.07.002-.139.006-.205a.52.52 0 0 1 .03-.159.502.502 0 0 1 .216-.27.716.716 0 0 1 .334-.07c.117 0 .242.016.375.047.133.032.258.082.375.153.117.07.215.16.293.27a.647.647 0 0 1 .117.386zm4.488-5.965a.308.308 0 0 1-.1.235.885.885 0 0 1-.24.158 1.111 1.111 0 0 1-.286.088 1.213 1.213 0 0 1-.51-.006 6.213 6.213 0 0 1-.258-.065 11.99 11.99 0 0 0-.246-.064.987.987 0 0 0-.246-.03c-.117 0-.235.02-.352.06a1.088 1.088 0 0 0-.316.163.85.85 0 0 0-.229.258.668.668 0 0 0-.088.34c0 .187.04.373.118.557.078.183.181.369.31.556.129.188.277.377.445.569.168.19.346.384.534.58.226.25.455.503.685.761.23.258.438.528.621.809.184.281.334.578.451.89.118.313.176.641.176.985 0 .297-.049.562-.146.797a1.7 1.7 0 0 1-.41.597 1.839 1.839 0 0 1-.633.381c-.246.09-.514.135-.803.135-.078 0-.197-.016-.357-.047a6.449 6.449 0 0 1-.545-.135 18.522 18.522 0 0 1-.627-.193 5.247 5.247 0 0 1-.586-.228 2.674 2.674 0 0 1-.434-.247c-.113-.082-.17-.158-.17-.228a.44.44 0 0 1 .13-.287c.085-.098.187-.188.304-.27.117-.082.24-.15.369-.205a.864.864 0 0 1 .322-.082c.118 0 .24.028.37.082.128.055.26.117.392.188.148.078.299.148.451.21.153.063.31.094.475.094.125 0 .197-.043.217-.129.02-.085.029-.183.029-.292a2.17 2.17 0 0 0-.14-.78 4.022 4.022 0 0 0-.364-.72 5.518 5.518 0 0 0-.516-.686 76.63 76.63 0 0 0-.586-.662c-.203-.219-.4-.438-.591-.656a5.763 5.763 0 0 1-.51-.674 3.658 3.658 0 0 1-.358-.71c-.09-.241-.134-.5-.134-.773 0-.336.074-.638.222-.908.149-.27.342-.502.58-.697.239-.195.508-.346.809-.451.3-.106.604-.158.908-.158a3.891 3.891 0 0 1 1.09.246c.203.078.383.171.54.28.155.11.233.231.233.364z" fill="#65B30B"/><path d="M267.813 151.637c0 .086-.02.158-.06.217a.457.457 0 0 1-.146.14.653.653 0 0 1-.187.076.843.843 0 0 1-.193.024 1.46 1.46 0 0 1-.305-.035 2.1 2.1 0 0 1-.328-.1 1.3 1.3 0 0 1-.3-.164.706.706 0 0 1-.204-.229.98.98 0 0 1-.1-.322 11.91 11.91 0 0 1-.053-.392c-.078.187-.17.37-.275.55-.105.18-.232.338-.38.475a1.836 1.836 0 0 1-.499.328 1.492 1.492 0 0 1-.615.123c-.398 0-.72-.094-.967-.281a1.922 1.922 0 0 1-.574-.71 3.033 3.033 0 0 1-.27-.937 7.807 7.807 0 0 1-.064-.978c0-.258.012-.55.035-.879a24.2 24.2 0 0 1 .094-1.008c.039-.344.086-.678.14-1.002.055-.324.114-.611.176-.861.078-.29.174-.608.287-.955.114-.348.258-.672.434-.973.176-.3.393-.556.65-.767.258-.211.567-.329.926-.352a40.92 40.92 0 0 0-.1-1.752c-.042-.535-.087-1.084-.134-1.646l-.117-1.301-.047-.469a5.993 5.993 0 0 1-.047-.762c0-.18.049-.304.146-.375a.637.637 0 0 1 .381-.105c.344 0 .606.05.785.152.18.102.307.238.381.41.074.172.115.373.123.604.008.23.012.478.012.744 0 .172.02.367.059.586l.058.434.094 1.195.094 1.125.246 2.52.469 4.71.035.434c.03.32.06.652.088.996.027.344.08.684.158 1.02.023.085.045.167.064.246.02.078.03.16.03.246zm-2.731-6.856a7.65 7.65 0 0 0-.006-.287 8.095 8.095 0 0 1-.006-.299v-.316a8.186 8.186 0 0 0-.21.322 2.73 2.73 0 0 0-.2.37 5.812 5.812 0 0 0-.34 1.048 19.564 19.564 0 0 0-.434 2.695c-.038.442-.058.811-.058 1.108 0 .11.002.234.006.375.004.14.018.283.041.428.023.144.059.283.105.416.047.132.11.242.188.328.117-.149.223-.377.316-.686a8.51 8.51 0 0 0 .24-1.054 19.9 19.9 0 0 0 .17-1.249 35.332 35.332 0 0 0 .188-3.2zm5.05-2.636c0 .132-.028.228-.087.287-.059.058-.166.088-.322.088a3.826 3.826 0 0 1-.78-.117 1.42 1.42 0 0 1-.398-.165c-.113-.07-.17-.156-.17-.258 0-.03.012-.119.035-.263.024-.145.053-.299.088-.463l.094-.445c.027-.133.049-.207.064-.223v.012a.25.25 0 0 1 .14-.118.595.595 0 0 1 .165-.023 2.58 2.58 0 0 1 .615.111c.113.036.217.08.31.135.094.055.153.113.176.176a.824.824 0 0 1 .042.252c.003.105.001.201-.006.287 0 .031-.002.068-.006.111a1.18 1.18 0 0 0 0 .217c.004.04.01.078.017.117a1.77 1.77 0 0 1 .024.282zm.434 9.34c0 .18-.04.306-.123.38-.082.074-.213.112-.392.112a1.5 1.5 0 0 1-.31-.036 2.045 2.045 0 0 1-.335-.1 1.606 1.606 0 0 1-.304-.157.677.677 0 0 1-.211-.211c-.032-.047-.059-.192-.082-.434a14.559 14.559 0 0 1-.053-.902c-.012-.36-.024-.762-.035-1.207-.012-.446-.02-.895-.024-1.348a149.97 149.97 0 0 1-.006-1.324v-2.028c0-.078.002-.156.006-.234a.546.546 0 0 1 .047-.205.356.356 0 0 1 .129-.146.453.453 0 0 1 .252-.06c.344 0 .596.097.756.288.16.191.26.447.299.768.039.476.068.95.088 1.423.02.473.037.952.052 1.436.016.438.03.87.041 1.295a19.651 19.651 0 0 0 .1 1.518c.008.078.02.156.035.234l.047.463c.016.152.023.31.023.474zm5.016-8.075a.308.308 0 0 1-.1.235.885.885 0 0 1-.24.158 1.13 1.13 0 0 1-.287.088 1.213 1.213 0 0 1-.51-.006 6.213 6.213 0 0 1-.257-.065 11.988 11.988 0 0 0-.247-.064 1.08 1.08 0 0 0-.597.03 1.094 1.094 0 0 0-.317.163.85.85 0 0 0-.228.258.668.668 0 0 0-.088.34c0 .187.039.373.117.557.078.183.182.369.31.556.13.188.278.377.446.569.168.19.346.384.533.58.227.25.455.503.686.761.23.258.437.528.62.809.184.281.335.578.452.89.117.313.176.641.176.985 0 .297-.049.562-.147.797a1.7 1.7 0 0 1-.41.597 1.839 1.839 0 0 1-.633.381c-.246.09-.513.135-.802.135a2.09 2.09 0 0 1-.358-.047 6.449 6.449 0 0 1-.545-.135 18.523 18.523 0 0 1-.627-.193 5.247 5.247 0 0 1-.586-.228 2.674 2.674 0 0 1-.433-.247c-.114-.082-.17-.158-.17-.228a.44.44 0 0 1 .129-.287c.086-.098.187-.188.304-.27.118-.082.24-.15.37-.205a.864.864 0 0 1 .322-.082c.117 0 .24.028.369.082.129.055.26.117.393.188.148.078.298.148.45.21.153.063.311.094.475.094.125 0 .198-.043.217-.129.02-.085.03-.183.03-.292a2.17 2.17 0 0 0-.141-.78 4.022 4.022 0 0 0-.363-.72 5.518 5.518 0 0 0-.516-.686 76.63 76.63 0 0 0-.586-.662 29.91 29.91 0 0 1-.592-.656 5.763 5.763 0 0 1-.51-.674 3.658 3.658 0 0 1-.357-.71c-.09-.241-.135-.5-.135-.773 0-.336.074-.638.223-.908.148-.27.342-.502.58-.697.238-.195.508-.346.809-.451.3-.106.603-.158.908-.158a3.891 3.891 0 0 1 1.09.246c.203.078.382.171.539.28.156.11.234.231.234.364zm6.809 8.766c0 .086-.047.164-.141.234a1.34 1.34 0 0 1-.322.176 2.503 2.503 0 0 1-.37.111 1.468 1.468 0 0 1-.292.041.852.852 0 0 1-.364-.076 1.37 1.37 0 0 1-.304-.193 2.344 2.344 0 0 1-.264-.258 4.814 4.814 0 0 1-.229-.281 19.37 19.37 0 0 1-.843-1.125c-.29-.414-.547-.809-.774-1.184 0 .031.004.07.012.117a22.272 22.272 0 0 1 .053.604c.011.16.029.322.052.486.008.094.018.186.03.276.011.09.025.185.04.287l.048.375c.015.125.023.254.023.386 0 .164-.047.276-.14.334a.701.701 0 0 1-.376.088c-.109 0-.226-.008-.351-.023a1.463 1.463 0 0 1-.363-.094 1.168 1.168 0 0 1-.317-.187.714.714 0 0 1-.21-.305 4.127 4.127 0 0 1-.071-.528 21.053 21.053 0 0 1-.059-.86 74.038 74.038 0 0 1-.04-.956 1806.052 1806.052 0 0 0-.036-.914.755.755 0 0 1-.006-.094.828.828 0 0 1-.164-.199.435.435 0 0 1-.07-.223c0-.101.02-.191.059-.27.039-.077.082-.151.128-.222a58.92 58.92 0 0 1-.07-2.87c0-.79.01-1.573.03-2.35.019-.778.037-1.557.052-2.338l.035-1.57a3.13 3.13 0 0 0 .012-.305v-.938c0-.187.004-.363.012-.527.008-.164.015-.313.023-.446a1.08 1.08 0 0 1 .047-.292v.011a.568.568 0 0 1 .129-.258c.055-.054.148-.082.281-.082.328 0 .582.098.762.293.18.196.27.457.27.786a208.093 208.093 0 0 1-.024 3.128 211.337 211.337 0 0 0-.023 3.13c0 .187.002.376.005.568.004.191.006.384.006.58.008.156.012.316.012.48v.516l1.266-2.016v.012l.105-.211a.379.379 0 0 0 .041-.082.46.46 0 0 1 .024-.064.94.94 0 0 1 .082-.135 3.46 3.46 0 0 1 .228-.281.661.661 0 0 1 .14-.106.422.422 0 0 1 .212-.047c.086 0 .174.026.263.076.09.051.17.116.24.194.07.078.13.164.176.257.047.094.07.18.07.258 0 .063-.034.17-.105.323-.07.152-.162.337-.275.556a28.924 28.924 0 0 1-.82 1.477c-.153.258-.3.508-.44.75l-.375.644-.305.493a30.92 30.92 0 0 0 1.383 2.18c.266.382.537.75.815 1.1.277.352.548.66.814.927l.117.093c.094.07.192.155.293.252.102.098.153.201.153.31zM265.55 177.34c0 .11-.027.2-.081.27a.621.621 0 0 1-.205.17 1 1 0 0 1-.27.093c-.098.02-.185.03-.264.03-.273 0-.511-.079-.714-.235a2.152 2.152 0 0 1-.528-.604 3.615 3.615 0 0 1-.363-.843 10.508 10.508 0 0 1-.375-1.864 23.97 23.97 0 0 1-.07-.755c-.07-.727-.12-1.465-.147-2.215a61.112 61.112 0 0 1-.04-2.227 83.697 83.697 0 0 1 .216-6.07 51.321 51.321 0 0 0 .03-.686 17.015 17.015 0 0 1 .087-1.218c.02-.176.045-.3.076-.37v.012a.56.56 0 0 1 .13-.246c.054-.055.148-.082.28-.082.282 0 .52.094.715.281a.934.934 0 0 1 .293.703 2.732 2.732 0 0 1-.023.352 2.446 2.446 0 0 0-.024.293c-.023.305-.04.607-.052.908-.012.3-.026.604-.041.908a69.744 69.744 0 0 0-.118 4.032 71.257 71.257 0 0 0 .06 2.666c.023.55.056 1.119.099 1.705.043.586.1 1.144.17 1.675.07.532.154 1.012.252 1.442.097.43.212.762.345.996a.69.69 0 0 1 .205.146c.067.067.125.141.176.223.05.082.094.168.129.258s.053.174.053.252zm5.415-5.145c0 .68-.057 1.358-.17 2.034a5.605 5.605 0 0 1-.697 1.916c-.11.18-.235.353-.375.521a3.41 3.41 0 0 1-.463.457 2.187 2.187 0 0 1-.551.328 1.63 1.63 0 0 1-.627.123c-.344 0-.643-.08-.896-.24a2.295 2.295 0 0 1-.657-.633 3.822 3.822 0 0 1-.457-.89 6.566 6.566 0 0 1-.281-1.02 10.59 10.59 0 0 1-.146-2.807 10.527 10.527 0 0 1 .357-2.074c.098-.344.225-.666.38-.967.157-.3.345-.57.563-.808.22-.239.473-.428.762-.569v.012c.25-.133.5-.2.75-.2.156 0 .277.034.363.1.086.067.125.178.118.334.43.079.777.286 1.042.622.266.336.471.726.616 1.171.144.446.242.903.293 1.372.05.468.076.875.076 1.218zm-2.649-2.93a.564.564 0 0 1-.375-.152 3.519 3.519 0 0 0-.375.78 6.39 6.39 0 0 0-.24.902c-.058.309-.1.62-.123.932a11.79 11.79 0 0 0-.035.878c0 .227.012.518.035.874.024.355.068.712.135 1.072.066.36.16.695.281 1.008.121.312.28.543.475.691.242-.14.443-.365.603-.674.16-.308.287-.646.381-1.013.094-.368.158-.739.193-1.114.036-.375.053-.695.053-.96 0-.196-.012-.45-.035-.762a10.207 10.207 0 0 0-.117-.956 5.612 5.612 0 0 0-.229-.908c-.097-.281-.22-.492-.369-.633a.822.822 0 0 1-.258.036zm8.473 7.583c0 .156-.039.263-.117.322a.537.537 0 0 1-.328.088c-.367 0-.631-.098-.791-.293-.16-.195-.28-.453-.358-.774l-.07-.334a5.46 5.46 0 0 1-.059-.334 1.1 1.1 0 0 0-.046-.21 1.133 1.133 0 0 1-.047-.223 6.896 6.896 0 0 1-.346.709 3.988 3.988 0 0 1-.475.68 2.48 2.48 0 0 1-.603.51 1.412 1.412 0 0 1-.733.198c-.28 0-.515-.068-.703-.205a1.436 1.436 0 0 1-.44-.515 2.394 2.394 0 0 1-.222-.686 4.224 4.224 0 0 1-.064-.715c0-.53.052-1.107.158-1.728a16.257 16.257 0 0 1 1.096-3.656c.25-.575.523-1.077.82-1.506v.012l.07-.106a7.64 7.64 0 0 1 .3-.38.51.51 0 0 1 .403-.206c.149 0 .278.065.387.193.11.13.188.264.234.405.204.039.368.088.493.146a.82.82 0 0 1 .293.217c.07.086.117.186.14.299.024.113.035.236.035.369v.176c0 .062-.003.125-.011.187a1.825 1.825 0 0 0-.012.223v.234c0 .078.014.18.041.305.027.125.057.254.088.387l.082.433c.039.227.072.485.1.774.027.289.06.578.1.867.03.297.062.584.093.861.031.278.062.533.094.768l.28 1.734.036.2c.016.101.033.195.053.28.02.087.03.184.03.294zm-2.684-6.739a.401.401 0 0 0-.011-.076 5.357 5.357 0 0 1-.024-.111c-.18.383-.338.799-.474 1.248-.137.45-.25.906-.34 1.371a14.356 14.356 0 0 0-.264 2.713v.105c0 .032.004.063.012.094v.012c.187-.29.35-.67.486-1.143.137-.472.252-.968.346-1.488a16.824 16.824 0 0 0 .27-2.725zm8.672 6.528c0 .086-.02.158-.058.217a.457.457 0 0 1-.147.14.653.653 0 0 1-.187.076.843.843 0 0 1-.194.024 1.46 1.46 0 0 1-.304-.035 2.1 2.1 0 0 1-.328-.1 1.3 1.3 0 0 1-.3-.164.706.706 0 0 1-.204-.229.98.98 0 0 1-.1-.322 11.91 11.91 0 0 1-.053-.392c-.078.187-.17.37-.275.55-.106.18-.232.338-.38.475a1.836 1.836 0 0 1-.499.328 1.492 1.492 0 0 1-.615.123c-.399 0-.72-.094-.967-.281a1.922 1.922 0 0 1-.574-.71 3.033 3.033 0 0 1-.27-.937 7.807 7.807 0 0 1-.064-.978c0-.258.012-.55.035-.879.023-.328.055-.664.094-1.008s.086-.678.14-1.002c.055-.324.114-.611.176-.861.078-.29.174-.608.287-.955.114-.348.258-.672.434-.973.176-.3.392-.556.65-.767.258-.211.567-.329.926-.352a40.922 40.922 0 0 0-.1-1.752c-.043-.535-.087-1.084-.134-1.646l-.118-1.301-.046-.469a5.993 5.993 0 0 1-.047-.762c0-.18.049-.304.146-.375a.637.637 0 0 1 .381-.105c.344 0 .605.05.785.152.18.102.307.238.381.41.074.172.115.373.123.604.008.23.012.478.012.744 0 .172.02.367.058.586l.059.434.094 1.195.094 1.125.246 2.52.468 4.71.036.434c.03.32.06.652.087.996.028.344.08.684.159 1.02.023.085.045.167.064.246.02.078.03.16.03.246zm-2.73-6.856a7.65 7.65 0 0 0-.006-.287 8.093 8.093 0 0 1-.006-.299v-.316a8.185 8.185 0 0 0-.21.322 2.73 2.73 0 0 0-.2.37 5.812 5.812 0 0 0-.34 1.048 19.565 19.565 0 0 0-.434 2.695c-.038.442-.058.811-.058 1.108 0 .11.002.234.006.375.004.14.017.283.04.428.024.144.06.283.106.416.047.132.11.242.188.328.117-.149.222-.377.316-.686a8.51 8.51 0 0 0 .24-1.054c.067-.395.123-.811.17-1.249a35.332 35.332 0 0 0 .188-3.2zm-15.539 26.16c0 .18-.053.297-.158.352a.818.818 0 0 1-.381.082c-.133 0-.264-.01-.393-.03a1.267 1.267 0 0 1-.363-.11.912.912 0 0 1-.293-.223.786.786 0 0 1-.17-.364 7.147 7.147 0 0 1-.188-1.377 39.97 39.97 0 0 1-.023-1.388v-1.442c0-.656.027-1.337.082-2.045.055-.707.113-1.388.176-2.044 0-.024.004-.051.012-.082a.32.32 0 0 0 .011-.07c.008-.087.02-.18.035-.282.016-.102.041-.193.077-.275a.533.533 0 0 1 .152-.206.402.402 0 0 1 .264-.082c.125 0 .244.026.357.077.113.05.213.117.299.199a.905.905 0 0 1 .205.299c.05.117.076.238.076.363 0 .156-.006.318-.017.486-.012.168-.026.33-.041.487a3.704 3.704 0 0 0-.03.246l-.017.27c.093-.165.2-.33.322-.499.121-.168.256-.316.404-.445a2.08 2.08 0 0 1 .487-.317c.175-.082.365-.123.568-.123.203 0 .371.034.504.1a.822.822 0 0 1 .316.27c.078.113.133.248.164.404.032.156.047.32.047.492a8.24 8.24 0 0 1-.023.621 8.137 8.137 0 0 0-.006 1.19l.04.58c.079-.258.175-.551.288-.88a12.801 12.801 0 0 1 .902-2.02 5.58 5.58 0 0 1 .598-.885c.215-.258.447-.467.697-.627.25-.16.512-.24.785-.24.43 0 .733.124.909.374.175.25.263.57.263.961a5.38 5.38 0 0 1-.047.692 29.7 29.7 0 0 0-.117 2.602v.222c0 .547.024 1.062.07 1.547.047.484.141.996.282 1.535l.094.316c.03.11.068.23.11.364.044.132.081.261.112.386s.059.243.082.352c.024.11.035.195.035.258 0 .164-.058.273-.175.328a.85.85 0 0 1-.364.082c-.078 0-.168-.002-.27-.006a1.892 1.892 0 0 1-.298-.035 1.384 1.384 0 0 1-.281-.088.6.6 0 0 1-.217-.152v.011a.613.613 0 0 1-.152-.257 2.143 2.143 0 0 1-.07-.305l-.024-.106c-.11-.422-.201-.8-.276-1.136a12.428 12.428 0 0 1-.281-2.05c-.02-.36-.03-.775-.03-1.243 0-.399.018-.805.054-1.22.035-.413.072-.82.111-1.218a1.78 1.78 0 0 1 .023-.27 9.207 9.207 0 0 0-.779 1.518 20.065 20.065 0 0 0-.598 1.694 23.3 23.3 0 0 0-.457 1.74 64.53 64.53 0 0 0-.345 1.658c0 .008.017.053.052.135.036.082.07.176.106.281l.1.305a.833.833 0 0 1 .046.193c0 .18-.058.29-.175.328-.118.04-.239.059-.364.059-.093 0-.195-.004-.304-.012a1.51 1.51 0 0 1-.616-.182.577.577 0 0 1-.216-.216c-.047-.078-.102-.264-.164-.557a31.557 31.557 0 0 1-.399-2.303l-.176-1.289a34.53 34.53 0 0 1-.129-1.066 7.416 7.416 0 0 1-.046-.621v-.176c-.25.539-.457 1.117-.622 1.734a16.048 16.048 0 0 0-.375 1.817l-.046.21a1.647 1.647 0 0 0-.047.352c0 .086.01.192.029.317.02.125.045.261.076.41.04.203.072.412.1.627.027.215.04.427.04.638zm12.844-2.086c0 .235-.065.477-.194.727s-.295.479-.498.686a2.65 2.65 0 0 1-.697.51 1.71 1.71 0 0 1-.78.199c-.367 0-.683-.073-.949-.217a2.25 2.25 0 0 1-.691-.586 3.194 3.194 0 0 1-.475-.838 6.26 6.26 0 0 1-.287-.967 7.956 7.956 0 0 1-.146-.996 11.144 11.144 0 0 1-.041-.908 9.965 9.965 0 0 1 .181-1.828 7.29 7.29 0 0 1 .276-1.02 3.96 3.96 0 0 1 .44-.902c.175-.266.386-.48.632-.645.246-.164.53-.246.85-.246.25 0 .474.051.673.153.2.101.368.236.504.404.137.168.243.361.317.58.074.219.111.445.111.68 0 .304-.07.636-.21.996a5.53 5.53 0 0 1-.546 1.043 5.491 5.491 0 0 1-.75.908c-.277.27-.552.474-.826.615.016.14.047.346.094.615.047.27.111.537.193.803s.18.496.293.691c.113.196.248.293.404.293a.319.319 0 0 0 .206-.07.693.693 0 0 0 .158-.187 1.54 1.54 0 0 0 .123-.258l.1-.27.07-.164a.573.573 0 0 0 .029-.047l.018-.035c.054-.101.107-.195.158-.281a.691.691 0 0 1 .217-.223h-.012a.167.167 0 0 1 .1-.052.6.6 0 0 1 .38.076c.102.054.196.123.282.205.086.082.156.172.21.27a.585.585 0 0 1 .083.286zm-2.32-5.167c0-.079-.005-.16-.012-.247a.62.62 0 0 0-.06-.222 2.07 2.07 0 0 0-.286.474c-.082.184-.15.375-.205.575a7.074 7.074 0 0 0-.21 1.166c.202-.243.382-.518.538-.827.156-.308.234-.615.234-.92zm4.792 7.253c0 .18-.053.297-.158.352a.818.818 0 0 1-.38.082c-.134 0-.265-.01-.393-.03a1.267 1.267 0 0 1-.364-.11.912.912 0 0 1-.293-.223.786.786 0 0 1-.17-.364 7.147 7.147 0 0 1-.187-1.377 39.97 39.97 0 0 1-.024-1.388v-1.442c0-.656.028-1.337.082-2.045.055-.707.114-1.388.176-2.044 0-.024.004-.051.012-.082a.32.32 0 0 0 .012-.07c.008-.087.02-.18.035-.282.015-.102.04-.193.076-.275a.533.533 0 0 1 .152-.206.402.402 0 0 1 .264-.082c.125 0 .244.026.357.077.114.05.213.117.3.199a.905.905 0 0 1 .204.299.9.9 0 0 1 .077.363c0 .156-.006.318-.018.486-.012.168-.025.33-.041.487a4.543 4.543 0 0 0-.03.246l-.017.27a5.73 5.73 0 0 1 .322-.499c.121-.168.256-.316.405-.445a2.08 2.08 0 0 1 .486-.317c.176-.082.365-.123.568-.123.203 0 .371.034.504.1a.822.822 0 0 1 .317.27c.078.113.132.248.164.404.031.156.047.32.047.492a8.239 8.239 0 0 1-.024.621 8.139 8.139 0 0 0-.006 1.19l.041.58c.078-.258.174-.551.287-.88a12.802 12.802 0 0 1 .903-2.02c.183-.333.383-.628.597-.885.215-.258.448-.467.698-.627.25-.16.511-.24.785-.24.43 0 .732.124.908.374.176.25.264.57.264.961a5.379 5.379 0 0 1-.047.692 29.7 29.7 0 0 0-.117 2.602v.222c0 .547.023 1.062.07 1.547.047.484.14.996.281 1.535l.094.316c.031.11.068.23.111.364.043.132.08.261.112.386.03.125.058.243.082.352.023.11.035.195.035.258 0 .164-.059.273-.176.328a.85.85 0 0 1-.363.082c-.078 0-.168-.002-.27-.006a1.892 1.892 0 0 1-.299-.035 1.384 1.384 0 0 1-.28-.088.6.6 0 0 1-.218-.152v.011a.613.613 0 0 1-.152-.257 2.143 2.143 0 0 1-.07-.305l-.024-.106c-.11-.422-.2-.8-.275-1.136a12.428 12.428 0 0 1-.281-2.05c-.02-.36-.03-.775-.03-1.243 0-.399.018-.805.053-1.22.035-.413.072-.82.111-1.218a1.78 1.78 0 0 1 .024-.27 9.133 9.133 0 0 0-.78 1.518 20.418 20.418 0 0 0-.597 1.694 23.3 23.3 0 0 0-.457 1.74 64.53 64.53 0 0 0-.346 1.658c0 .008.018.053.053.135.035.082.07.176.105.281.035.106.069.207.1.305a.833.833 0 0 1 .047.193c0 .18-.059.29-.176.328-.117.04-.238.059-.363.059a4.19 4.19 0 0 1-.305-.012 1.51 1.51 0 0 1-.615-.182.577.577 0 0 1-.217-.216c-.047-.078-.102-.264-.164-.557a31.554 31.554 0 0 1-.398-2.303c-.063-.453-.122-.883-.176-1.289a34.53 34.53 0 0 1-.13-1.066 7.416 7.416 0 0 1-.046-.621v-.176c-.25.539-.457 1.117-.621 1.734-.164.618-.29 1.223-.375 1.817l-.047.21a1.647 1.647 0 0 0-.047.352c0 .086.01.192.03.317.019.125.044.261.076.41.039.203.072.412.1.627.027.215.04.427.04.638zm13.406-4.746c0 .68-.056 1.358-.17 2.034a5.605 5.605 0 0 1-.697 1.916c-.11.18-.234.353-.375.521a3.41 3.41 0 0 1-.463.457 2.187 2.187 0 0 1-.55.328 1.63 1.63 0 0 1-.627.123c-.344 0-.643-.08-.897-.24a2.295 2.295 0 0 1-.656-.633 3.822 3.822 0 0 1-.457-.89 6.566 6.566 0 0 1-.281-1.02 10.59 10.59 0 0 1-.146-2.807c.023-.336.064-.68.122-1.03.059-.352.137-.7.235-1.044.097-.344.224-.666.38-.967.157-.3.344-.57.563-.808.219-.239.473-.428.762-.569v.012c.25-.133.5-.2.75-.2.156 0 .277.034.363.1.086.067.125.178.117.334.43.079.777.286 1.043.622.266.336.47.726.615 1.171.145.446.243.903.293 1.372.051.468.076.875.076 1.218zm-2.648-2.93a.564.564 0 0 1-.375-.152 3.519 3.519 0 0 0-.375.78 6.39 6.39 0 0 0-.24.902c-.059.309-.1.62-.123.932a11.79 11.79 0 0 0-.035.878c0 .227.011.518.035.874.023.355.068.712.135 1.072.066.36.16.695.28 1.008.122.312.28.543.475.691.243-.14.444-.365.604-.674.16-.308.287-.646.38-1.013.094-.368.159-.739.194-1.114.035-.375.053-.695.053-.96 0-.196-.012-.45-.035-.762a10.561 10.561 0 0 0-.118-.956 5.612 5.612 0 0 0-.228-.908c-.098-.281-.22-.492-.37-.633a.822.822 0 0 1-.257.036zm4.582 7.923a1.72 1.72 0 0 1-.38-.047 1.377 1.377 0 0 1-.388-.153 1.047 1.047 0 0 1-.304-.263.602.602 0 0 1-.123-.381c0-.219.01-.436.029-.65.02-.215.041-.428.065-.64v.012l.07-.785c.023-.281.043-.59.058-.926a80.3 80.3 0 0 0 .082-2.976c0-.164-.002-.33-.005-.498a21.928 21.928 0 0 1-.006-.51 9.553 9.553 0 0 1-.012-.498v-.51c0-.164.021-.299.064-.404.043-.105.166-.158.37-.158.18 0 .369.047.568.14.2.094.338.227.416.399h-.012c.04.086.069.224.088.416.02.191.033.361.041.51.133-.204.283-.418.451-.645.168-.226.35-.435.545-.627.196-.191.403-.35.621-.474.22-.125.453-.188.703-.188.329 0 .579.082.75.246.172.164.297.37.375.615.079.246.122.508.13.786.007.277.011.529.011.755v.094c0 .094-.002.186-.006.276a.81.81 0 0 1-.047.246.378.378 0 0 1-.14.181.47.47 0 0 1-.276.07 1.645 1.645 0 0 1-.79-.21 1.126 1.126 0 0 1-.311-.264.624.624 0 0 1-.14-.37v-.187c0-.062.003-.125.01-.187 0-.04.003-.088.007-.147.004-.058.006-.115.006-.17-.25.25-.471.559-.663.926-.19.367-.363.758-.515 1.172-.152.414-.283.83-.393 1.248-.11.418-.203.795-.281 1.131v.035c-.023.242-.039.48-.047.715l-.023.727a67.16 67.16 0 0 1-.03.855c-.011.29-.033.57-.064.844a.594.594 0 0 1-.135.345c-.074.082-.197.124-.369.124zm9.246.609c0 .32-.012.656-.035 1.008-.023.351-.063.705-.117 1.06a9.435 9.435 0 0 1-.223 1.05 5.82 5.82 0 0 1-.351.96 4.43 4.43 0 0 1-.885 1.154 5.547 5.547 0 0 1-1.166.838 5.725 5.725 0 0 1-1.348.516 6.015 6.015 0 0 1-1.441.176c-.07 0-.155-.004-.252-.012a1.43 1.43 0 0 1-.287-.053.537.537 0 0 1-.235-.135.348.348 0 0 1-.093-.257c0-.047.011-.094.035-.141a.13.13 0 0 1 .006-.041.096.096 0 0 0 .005-.03c.055-.156.118-.28.188-.374a.784.784 0 0 1 .24-.217.944.944 0 0 1 .317-.106c.12-.02.26-.037.416-.052.5-.024.972-.141 1.418-.352v.012c.507-.25.908-.56 1.2-.932.294-.371.516-.781.669-1.23a5.83 5.83 0 0 0 .287-1.424c.039-.5.058-1.004.058-1.512v-.55c0-.055-.003-.141-.011-.258-.274.21-.559.316-.856.316a1.35 1.35 0 0 1-.873-.287 2.308 2.308 0 0 1-.597-.75 4.406 4.406 0 0 1-.375-1.055c-.09-.394-.157-.797-.2-1.207-.043-.41-.07-.81-.082-1.201a37.59 37.59 0 0 1-.017-1.043v-.492c0-.414.002-.82.006-1.219.003-.398.017-.797.04-1.195v-.457c0-.094.008-.184.024-.27a.544.544 0 0 1 .135-.27c.058-.054.154-.081.287-.081a1.374 1.374 0 0 1 .363.046c.149.063.266.127.352.194.086.066.15.144.193.234a.93.93 0 0 1 .082.31c.012.118.018.255.018.41v1.571c0 .188.002.42.006.697.003.278.013.58.029.909.015.328.035.668.058 1.02.024.35.059.69.106 1.019.047.328.101.629.164.902.062.274.14.5.234.68.141-.305.262-.662.364-1.072.101-.41.185-.852.252-1.325.066-.472.117-.959.152-1.459.035-.5.062-.988.082-1.465.02-.476.031-.927.035-1.353.004-.426.006-.799.006-1.12 0-.077.002-.161.006-.251a.709.709 0 0 1 .053-.246.453.453 0 0 1 .134-.182c.059-.047.147-.07.264-.07.055 0 .115.008.182.023.066.016.123.031.17.047a.26.26 0 0 1 .052.006c.02.004.037.006.053.006.11.039.215.078.316.117.102.04.19.088.264.147a.608.608 0 0 1 .176.228.877.877 0 0 1 .064.363c0 .18-.002.385-.006.616-.003.23-.011.47-.023.72a39.375 39.375 0 0 1-.088 1.371l-.047.41a4.675 4.675 0 0 0-.047.633 94.883 94.883 0 0 0 .047 2.989 96.473 96.473 0 0 1 .047 2.988z" fill="#3F7500"/><path d="M365.664 222.188a1.72 1.72 0 0 1-.38-.047 1.377 1.377 0 0 1-.388-.153 1.047 1.047 0 0 1-.304-.263.602.602 0 0 1-.123-.381c0-.219.01-.436.029-.65.02-.215.041-.428.065-.64v.012l.07-.785c.023-.281.043-.59.058-.926a80.3 80.3 0 0 0 .082-2.976c0-.164-.002-.33-.005-.498a21.928 21.928 0 0 1-.006-.51 9.553 9.553 0 0 1-.012-.498v-.51c0-.164.021-.299.064-.404.043-.105.166-.158.37-.158.18 0 .369.047.568.14.2.094.338.227.416.399h-.012c.04.086.069.224.088.416.02.191.033.361.041.51.133-.204.283-.418.451-.645.168-.226.35-.435.545-.627.196-.191.403-.35.621-.474.22-.125.453-.188.703-.188.329 0 .579.082.75.246.172.164.297.37.375.615.079.246.122.508.13.786.007.277.011.529.011.755v.094c0 .094-.002.186-.006.276a.81.81 0 0 1-.047.246.378.378 0 0 1-.14.181.47.47 0 0 1-.276.07 1.645 1.645 0 0 1-.79-.21 1.126 1.126 0 0 1-.311-.264.624.624 0 0 1-.14-.37v-.187c0-.062.003-.125.01-.187 0-.04.003-.088.007-.147.004-.058.006-.115.006-.17-.25.25-.471.559-.663.926-.19.367-.363.758-.515 1.172-.152.414-.283.83-.393 1.248-.11.418-.203.795-.281 1.131v.035c-.023.242-.039.48-.047.715l-.023.727a67.16 67.16 0 0 1-.03.855c-.011.29-.033.57-.064.844a.594.594 0 0 1-.135.345c-.074.082-.197.124-.369.124zm9.223-2.333c0 .235-.065.477-.194.727s-.295.479-.498.686a2.65 2.65 0 0 1-.697.51 1.71 1.71 0 0 1-.78.199 1.96 1.96 0 0 1-.948-.217 2.25 2.25 0 0 1-.692-.586 3.194 3.194 0 0 1-.474-.838 6.26 6.26 0 0 1-.288-.967 7.956 7.956 0 0 1-.146-.996 11.144 11.144 0 0 1-.041-.908 9.965 9.965 0 0 1 .182-1.828 7.29 7.29 0 0 1 .275-1.02c.117-.336.264-.637.44-.902.175-.266.386-.48.632-.645.246-.164.53-.246.85-.246.25 0 .474.051.674.153.199.101.367.236.504.404.136.168.242.361.316.58.074.219.111.445.111.68 0 .304-.07.636-.21.996a5.53 5.53 0 0 1-.546 1.043 5.491 5.491 0 0 1-.75.908c-.277.27-.552.474-.826.615.016.14.047.346.094.615.047.27.111.537.193.803s.18.496.293.691c.114.196.248.293.405.293a.319.319 0 0 0 .205-.07.693.693 0 0 0 .158-.187 1.54 1.54 0 0 0 .123-.258l.1-.27.07-.164a.572.572 0 0 0 .03-.047l.017-.035c.054-.101.107-.195.158-.281a.691.691 0 0 1 .217-.223h-.012a.167.167 0 0 1 .1-.052.6.6 0 0 1 .38.076c.102.054.196.123.282.205.086.082.156.172.21.27a.585.585 0 0 1 .083.286zm-2.32-5.167c0-.079-.005-.16-.012-.247a.62.62 0 0 0-.059-.222 2.07 2.07 0 0 0-.287.474c-.082.184-.15.375-.205.575a7.073 7.073 0 0 0-.21 1.166c.202-.243.382-.518.538-.827.156-.308.234-.615.234-.92zm4.476 4.265c0 .375-.002.719-.006 1.031-.004.313.002.657.018 1.032l.21-.153.13-.082a4.617 4.617 0 0 0 1.001-1.119 7.35 7.35 0 0 0 .71-1.412 8.976 8.976 0 0 0 .545-3.44 3.034 3.034 0 0 0-.053-.498 1.572 1.572 0 0 0-.141-.427c-.062-.121-.152-.182-.27-.182-.187 0-.378.113-.574.34a4.488 4.488 0 0 0-.545.809c-.168.312-.318.627-.45.943a13.614 13.614 0 0 0-.3.756c-.004 0-.005.004-.005.012v.011c-.047.11-.096.227-.147.352a1.57 1.57 0 0 0-.1.351 4.41 4.41 0 0 0-.035.37 7.505 7.505 0 0 0-.006.656c.004.074.006.142.006.205 0 .086.002.166.006.24.004.074.006.143.006.205zm.644 10.711c0 .172-.046.29-.14.352a.666.666 0 0 1-.375.093c-.188 0-.395-.029-.621-.088a1.02 1.02 0 0 1-.54-.322c-.038-.054-.075-.215-.11-.48a21.67 21.67 0 0 1-.1-.932 42.665 42.665 0 0 1-.082-1.101 53.24 53.24 0 0 0-.07-1.002l-.047-.621a89.568 89.568 0 0 1-.141-5.016c0-.977.018-1.936.053-2.877.035-.941.072-1.897.111-2.865l.047-1.23c0-.126.002-.249.006-.37s.017-.24.04-.357a.68.68 0 0 1 .147-.24c.059-.06.155-.088.287-.088.336 0 .582.1.739.298.156.2.246.444.27.733a2.92 2.92 0 0 1 .896-.82 2.337 2.337 0 0 1 1.2-.305c.384 0 .706.086.968.258.261.171.47.392.627.662.156.27.267.57.334.902.066.332.1.658.1.979 0 .617-.056 1.232-.165 1.845a9.022 9.022 0 0 1-.51 1.782 8.381 8.381 0 0 1-.873 1.628 6.763 6.763 0 0 1-1.465 1.541 3.194 3.194 0 0 1-.27.176 1.988 1.988 0 0 1-.286.14.72.72 0 0 1-.264.06.411.411 0 0 1-.223-.06.71.71 0 0 1-.164-.14 91.8 91.8 0 0 0 .164 3.416c.04.582.088 1.158.147 1.729.059.57.13 1.12.217 1.652.023.102.045.21.064.322.02.114.03.229.03.346zm9.399-12.469c0 .68-.057 1.358-.17 2.034a5.605 5.605 0 0 1-.697 1.916c-.11.18-.235.353-.375.521a3.41 3.41 0 0 1-.463.457 2.187 2.187 0 0 1-.55.328 1.63 1.63 0 0 1-.628.123c-.344 0-.642-.08-.896-.24a2.295 2.295 0 0 1-.657-.633 3.822 3.822 0 0 1-.457-.89 6.566 6.566 0 0 1-.28-1.02 10.59 10.59 0 0 1-.146-2.807 10.222 10.222 0 0 1 .356-2.074c.098-.344.225-.666.38-.967.157-.3.345-.57.563-.808.22-.239.473-.428.762-.569v.012c.25-.133.5-.2.75-.2.156 0 .277.034.363.1.086.067.125.178.118.334.43.079.777.286 1.043.622.265.336.47.726.615 1.171.144.446.242.903.293 1.372.05.468.076.875.076 1.218zm-2.649-2.93a.564.564 0 0 1-.375-.152 3.519 3.519 0 0 0-.375.78 6.39 6.39 0 0 0-.24.902c-.058.309-.1.62-.123.932a11.79 11.79 0 0 0-.035.878c0 .227.012.518.035.874.024.355.069.712.135 1.072.066.36.16.695.281 1.008.121.312.28.543.475.691.242-.14.443-.365.603-.674.16-.308.287-.646.381-1.013.094-.368.158-.739.194-1.114.035-.375.052-.695.052-.96 0-.196-.011-.45-.035-.762a10.207 10.207 0 0 0-.117-.956 5.612 5.612 0 0 0-.229-.908c-.097-.281-.22-.492-.369-.633a.822.822 0 0 1-.257.036zm4.583 7.923c-.118 0-.245-.016-.381-.047a1.377 1.377 0 0 1-.387-.153 1.047 1.047 0 0 1-.305-.263.602.602 0 0 1-.123-.381c0-.219.01-.436.03-.65.019-.215.04-.428.064-.64v.012l.07-.785c.024-.281.043-.59.059-.926a80.3 80.3 0 0 0 .082-2.976c0-.164-.002-.33-.006-.498a21.928 21.928 0 0 1-.006-.51 9.553 9.553 0 0 1-.012-.498v-.51c0-.164.022-.299.065-.404.043-.105.166-.158.37-.158.179 0 .368.047.567.14.2.094.338.227.416.399h-.011c.039.086.068.224.088.416.02.191.033.361.04.51.133-.204.284-.418.452-.645a5.27 5.27 0 0 1 .545-.627c.195-.191.402-.35.62-.474.22-.125.454-.188.704-.188.328 0 .578.082.75.246.172.164.297.37.375.615.078.246.121.508.129.786.008.277.012.529.012.755v.094c0 .094-.002.186-.006.276a.81.81 0 0 1-.047.246.378.378 0 0 1-.14.181.47.47 0 0 1-.276.07 1.645 1.645 0 0 1-.791-.21 1.126 1.126 0 0 1-.31-.264.624.624 0 0 1-.141-.37v-.187c0-.062.004-.125.011-.187 0-.04.002-.088.006-.147.004-.058.006-.115.006-.17-.25.25-.47.559-.662.926-.191.367-.363.758-.516 1.172-.152.414-.283.83-.392 1.248-.11.418-.203.795-.281 1.131v.035c-.024.242-.04.48-.047.715l-.024.727a67.18 67.18 0 0 1-.03.855c-.01.29-.032.57-.064.844a.594.594 0 0 1-.134.345c-.075.082-.198.124-.37.124zm7.277-.481a.382.382 0 0 1-.205.352.628.628 0 0 1-.188.064c-.066.012-.13.018-.193.018a2.003 2.003 0 0 1-.633-.117 1.417 1.417 0 0 1-.299-.147.603.603 0 0 1-.205-.217c-.047-.078-.088-.224-.123-.44a9.548 9.548 0 0 1-.088-.75c-.023-.284-.043-.59-.058-.913-.016-.325-.03-.635-.041-.932a35.145 35.145 0 0 1-.03-1.336c0-.547.01-1.076.03-1.588.02-.512.04-1.037.064-1.576a.596.596 0 0 0-.117.012.596.596 0 0 1-.117.011 3.971 3.971 0 0 1-.633.047.83.83 0 0 1-.352-.07c-.101-.047-.152-.152-.152-.316 0-.196.043-.352.129-.47a.899.899 0 0 1 .328-.275c.133-.066.277-.113.434-.14a6.755 6.755 0 0 1 .504-.07.122.122 0 0 1 .046-.006c.008-.094.016-.21.024-.346.008-.137.015-.287.023-.451.008-.258.02-.533.035-.826l.047-.844c.016-.27.036-.508.059-.715.023-.207.047-.353.07-.44a.904.904 0 0 1 .135-.246c.05-.062.146-.093.287-.093.313 0 .555.101.727.304.172.204.257.454.257.75 0 .344-.01.688-.029 1.032-.02.343-.037.691-.053 1.043l-.035.597c.196-.023.39-.058.586-.105.188-.04.377-.074.569-.106.191-.03.377-.047.556-.047.157 0 .278.041.364.124.085.082.128.2.128.357 0 .172-.03.34-.093.504a.701.701 0 0 1-.328.375h.011a1.51 1.51 0 0 1-.281.064 9.694 9.694 0 0 1-.533.076l-.586.07c-.192.024-.334.04-.428.048h-.012a74.657 74.657 0 0 0-.046 2.59c0 .601.017 1.24.052 1.916.035.675.096 1.318.182 1.927l.094.528c.03.132.058.263.082.392.023.13.035.256.035.381zm7.535.234c0 .18-.053.297-.158.352a.818.818 0 0 1-.381.082c-.133 0-.264-.01-.393-.03a1.267 1.267 0 0 1-.363-.11.912.912 0 0 1-.293-.223.786.786 0 0 1-.17-.364 7.147 7.147 0 0 1-.187-1.377 39.97 39.97 0 0 1-.024-1.388v-1.442c0-.656.028-1.337.082-2.045.055-.707.114-1.388.176-2.044 0-.024.004-.051.012-.082a.32.32 0 0 0 .012-.07c.007-.087.02-.18.035-.282.015-.102.04-.193.076-.275a.533.533 0 0 1 .152-.206.402.402 0 0 1 .264-.082c.125 0 .244.026.357.077.114.05.213.117.3.199a.905.905 0 0 1 .204.299.899.899 0 0 1 .076.363c0 .156-.005.318-.017.486-.012.168-.026.33-.041.487a3.704 3.704 0 0 0-.03.246l-.017.27a5.73 5.73 0 0 1 .322-.499c.121-.168.256-.316.404-.445a2.08 2.08 0 0 1 .487-.317c.176-.082.365-.123.568-.123.203 0 .371.034.504.1a.822.822 0 0 1 .316.27c.079.113.133.248.165.404.03.156.046.32.046.492a8.24 8.24 0 0 1-.023.621 8.137 8.137 0 0 0-.006 1.19l.041.58c.078-.258.174-.551.287-.88a12.801 12.801 0 0 1 .903-2.02 5.51 5.51 0 0 1 .597-.885c.215-.258.447-.467.697-.627.25-.16.512-.24.786-.24.43 0 .732.124.908.374.176.25.264.57.264.961a5.379 5.379 0 0 1-.047.692 29.699 29.699 0 0 0-.117 2.602v.222c0 .547.023 1.062.07 1.547.047.484.14.996.281 1.535l.094.316c.031.11.068.23.111.364a8.469 8.469 0 0 1 .193.738c.024.11.036.195.036.258 0 .164-.059.273-.176.328a.85.85 0 0 1-.363.082c-.079 0-.168-.002-.27-.006a1.892 1.892 0 0 1-.299-.035 1.384 1.384 0 0 1-.281-.088.6.6 0 0 1-.217-.152v.011a.613.613 0 0 1-.152-.257 2.143 2.143 0 0 1-.07-.305l-.024-.106c-.11-.422-.201-.8-.275-1.136a12.428 12.428 0 0 1-.281-2.05c-.02-.36-.03-.775-.03-1.243 0-.399.018-.805.053-1.22.035-.413.072-.82.111-1.218a1.78 1.78 0 0 1 .024-.27 9.133 9.133 0 0 0-.78 1.518 20.06 20.06 0 0 0-.597 1.694 23.3 23.3 0 0 0-.457 1.74 64.53 64.53 0 0 0-.346 1.658c0 .008.018.053.053.135.035.082.07.176.105.281l.1.305a.833.833 0 0 1 .047.193c0 .18-.059.29-.176.328-.117.04-.238.059-.363.059a4.19 4.19 0 0 1-.305-.012 1.51 1.51 0 0 1-.615-.182.577.577 0 0 1-.217-.216c-.047-.078-.102-.264-.164-.557a31.557 31.557 0 0 1-.399-2.303l-.175-1.289a34.534 34.534 0 0 1-.13-1.066 7.416 7.416 0 0 1-.046-.621v-.176c-.25.539-.457 1.117-.621 1.734-.164.618-.29 1.223-.375 1.817l-.047.21a1.648 1.648 0 0 0-.047.352c0 .086.01.192.03.317.019.125.044.261.075.41.04.203.073.412.1.627.027.215.041.427.041.638zm12.844-2.086c0 .235-.065.477-.194.727-.128.25-.294.479-.498.686a2.65 2.65 0 0 1-.697.51 1.71 1.71 0 0 1-.78.199 1.96 1.96 0 0 1-.948-.217 2.25 2.25 0 0 1-.692-.586 3.194 3.194 0 0 1-.474-.838 6.26 6.26 0 0 1-.288-.967 7.956 7.956 0 0 1-.146-.996 11.144 11.144 0 0 1-.041-.908 9.965 9.965 0 0 1 .182-1.828 7.29 7.29 0 0 1 .275-1.02c.117-.336.264-.637.44-.902.175-.266.386-.48.632-.645.246-.164.53-.246.85-.246.25 0 .474.051.674.153.199.101.367.236.504.404.136.168.242.361.316.58.074.219.111.445.111.68 0 .304-.07.636-.21.996a5.53 5.53 0 0 1-.546 1.043 5.491 5.491 0 0 1-.75.908c-.277.27-.552.474-.826.615.016.14.047.346.094.615.047.27.111.537.193.803s.18.496.293.691c.114.196.248.293.405.293a.319.319 0 0 0 .205-.07.693.693 0 0 0 .158-.187 1.54 1.54 0 0 0 .123-.258l.1-.27.07-.164a.572.572 0 0 0 .03-.047l.017-.035c.055-.101.107-.195.158-.281a.691.691 0 0 1 .217-.223h-.012a.167.167 0 0 1 .1-.052.6.6 0 0 1 .38.076c.102.054.196.123.282.205.086.082.156.172.21.27a.585.585 0 0 1 .083.286zm-2.32-5.167c0-.079-.004-.16-.012-.247a.62.62 0 0 0-.059-.222 2.07 2.07 0 0 0-.287.474c-.082.184-.15.375-.205.575a7.073 7.073 0 0 0-.21 1.166c.202-.243.382-.518.538-.827.156-.308.234-.615.234-.92zm5.449 7.019a.382.382 0 0 1-.205.352.628.628 0 0 1-.188.064c-.066.012-.13.018-.193.018a2.003 2.003 0 0 1-.633-.117 1.417 1.417 0 0 1-.299-.147.603.603 0 0 1-.205-.217c-.047-.078-.088-.224-.123-.44a9.548 9.548 0 0 1-.088-.75c-.023-.284-.043-.59-.058-.913-.016-.325-.03-.635-.042-.932a35.145 35.145 0 0 1-.029-1.336c0-.547.01-1.076.03-1.588.019-.512.04-1.037.064-1.576a.596.596 0 0 0-.117.012.596.596 0 0 1-.117.011 3.971 3.971 0 0 1-.633.047.83.83 0 0 1-.352-.07c-.101-.047-.152-.152-.152-.316 0-.196.043-.352.129-.47a.899.899 0 0 1 .328-.275 1.57 1.57 0 0 1 .433-.14 6.755 6.755 0 0 1 .504-.07.122.122 0 0 1 .047-.006c.008-.094.016-.21.024-.346l.023-.451c.008-.258.02-.533.035-.826l.047-.844c.016-.27.035-.508.059-.715.023-.207.047-.353.07-.44a.904.904 0 0 1 .135-.246c.05-.062.146-.093.287-.093.312 0 .555.101.726.304.172.204.258.454.258.75 0 .344-.01.688-.029 1.032-.02.343-.037.691-.053 1.043l-.035.597c.195-.023.39-.058.586-.105.188-.04.377-.074.568-.106a3.61 3.61 0 0 1 .557-.047c.156 0 .277.041.363.124.086.082.13.2.13.357 0 .172-.032.34-.094.504a.701.701 0 0 1-.329.375h.012a1.51 1.51 0 0 1-.281.064 9.694 9.694 0 0 1-.533.076l-.586.07c-.192.024-.334.04-.428.048h-.012a74.657 74.657 0 0 0-.047 2.59c0 .601.018 1.24.053 1.916.035.675.096 1.318.182 1.927l.094.528c.03.132.058.263.082.392.023.13.035.256.035.381zm3.175.48c-.117 0-.244-.015-.38-.046a1.377 1.377 0 0 1-.387-.153 1.047 1.047 0 0 1-.305-.263.602.602 0 0 1-.123-.381c0-.219.01-.436.03-.65.019-.215.04-.428.064-.64v.012l.07-.785c.024-.281.043-.59.059-.926a80.282 80.282 0 0 0 .082-2.976c0-.164-.002-.33-.006-.498a21.928 21.928 0 0 1-.006-.51 9.553 9.553 0 0 1-.012-.498v-.51c0-.164.022-.299.065-.404.043-.105.166-.158.369-.158.18 0 .37.047.568.14.2.094.338.227.416.399h-.011c.039.086.068.224.088.416.02.191.033.361.04.51.133-.204.284-.418.452-.645.168-.226.35-.435.545-.627.195-.191.402-.35.62-.474.22-.125.454-.188.704-.188.328 0 .578.082.75.246.172.164.297.37.375.615.078.246.121.508.129.786.008.277.012.529.012.755v.094c0 .094-.002.186-.006.276a.81.81 0 0 1-.047.246.378.378 0 0 1-.14.181.47.47 0 0 1-.276.07 1.645 1.645 0 0 1-.791-.21 1.126 1.126 0 0 1-.31-.264.624.624 0 0 1-.141-.37v-.187c0-.062.003-.125.011-.187 0-.04.002-.088.006-.147.004-.058.006-.115.006-.17-.25.25-.47.559-.662.926-.192.367-.363.758-.516 1.172-.152.414-.283.83-.392 1.248-.11.418-.203.795-.282 1.131v.035c-.023.242-.039.48-.046.715l-.024.727a67.16 67.16 0 0 1-.03.855c-.01.29-.032.57-.064.844a.594.594 0 0 1-.134.345c-.075.082-.198.124-.37.124zm6.176-10.042c0 .132-.029.228-.088.287-.058.058-.166.088-.322.088a3.825 3.825 0 0 1-.78-.117 1.42 1.42 0 0 1-.398-.165c-.113-.07-.17-.156-.17-.258a8.921 8.921 0 0 1 .123-.726c.036-.164.067-.313.094-.445.028-.133.05-.207.065-.223v.012a.25.25 0 0 1 .14-.118.595.595 0 0 1 .164-.023 2.658 2.658 0 0 1 .616.111c.113.036.216.08.31.135.094.055.152.113.176.176a.824.824 0 0 1 .041.252c.004.105.002.201-.006.287 0 .031-.002.068-.006.111a1.18 1.18 0 0 0 0 .217c.004.04.01.078.018.117a1.841 1.841 0 0 1 .023.281zm.434 9.34c0 .18-.041.306-.123.38-.082.074-.213.112-.393.112a1.5 1.5 0 0 1-.31-.036 2.045 2.045 0 0 1-.334-.1 1.606 1.606 0 0 1-.305-.157.677.677 0 0 1-.21-.211c-.032-.047-.06-.192-.083-.434a14.56 14.56 0 0 1-.053-.902l-.035-1.207c-.012-.446-.02-.895-.023-1.348a149.97 149.97 0 0 1-.006-1.324v-2.028c0-.078.002-.156.006-.234a.546.546 0 0 1 .047-.205.356.356 0 0 1 .128-.146.453.453 0 0 1 .252-.06c.344 0 .596.097.756.288.16.191.26.447.3.768.038.476.067.95.087 1.423.02.473.037.952.053 1.436.015.438.029.87.04 1.295a19.65 19.65 0 0 0 .1 1.518c.008.078.02.156.036.234l.046.463c.016.152.024.31.024.474zm5.683-2.11c0 .164-.027.332-.082.504a4.589 4.589 0 0 1-.187.492 4.61 4.61 0 0 1-.34.662 3.015 3.015 0 0 1-.457.574 2.094 2.094 0 0 1-.586.405 1.733 1.733 0 0 1-.738.152c-.485 0-.887-.121-1.207-.363a2.626 2.626 0 0 1-.762-.914 4.17 4.17 0 0 1-.393-1.207 7.44 7.44 0 0 1-.11-1.243c0-.289.01-.63.034-1.025.024-.394.069-.803.135-1.225a8.75 8.75 0 0 1 .293-1.253c.129-.414.295-.784.498-1.108.203-.324.451-.588.744-.79.293-.204.643-.306 1.05-.306a3.104 3.104 0 0 1 .861.182c.16.059.3.137.421.234.121.098.182.21.182.334a.297.297 0 0 1-.158.27 1.15 1.15 0 0 1-.375.135 2.774 2.774 0 0 1-.446.047c-.152.004-.275.006-.369.006h-.21c-.22.195-.4.482-.54.86-.14.38-.25.784-.328 1.214a14.299 14.299 0 0 0-.21 2.297c0 .375.028.744.087 1.107s.178.705.358 1.025c.039.07.095.15.17.24.074.09.158.135.251.135.07 0 .143-.058.217-.175.074-.118.143-.254.205-.41.063-.157.114-.31.153-.458.039-.148.066-.257.082-.328a.436.436 0 0 0 .011-.105v-.117c0-.07.002-.139.006-.205a.52.52 0 0 1 .03-.159.502.502 0 0 1 .216-.27.716.716 0 0 1 .334-.07c.117 0 .242.016.375.047.133.032.258.082.375.153.117.07.215.16.293.27a.647.647 0 0 1 .117.386zm4.489-5.965a.308.308 0 0 1-.1.235.885.885 0 0 1-.24.158 1.13 1.13 0 0 1-.287.088 1.213 1.213 0 0 1-.51-.006 6.212 6.212 0 0 1-.258-.065 11.99 11.99 0 0 0-.246-.064.987.987 0 0 0-.246-.03c-.117 0-.234.02-.352.06a1.088 1.088 0 0 0-.316.163.85.85 0 0 0-.228.258.668.668 0 0 0-.088.34c0 .187.039.373.117.557.078.183.181.369.31.556.13.188.278.377.446.569.168.19.345.384.533.58.226.25.455.503.685.761.23.258.438.528.622.809.183.281.333.578.45.89.118.313.176.641.176.985 0 .297-.048.562-.146.797a1.7 1.7 0 0 1-.41.597 1.839 1.839 0 0 1-.633.381c-.246.09-.514.135-.803.135-.078 0-.197-.016-.357-.047a6.449 6.449 0 0 1-.545-.135 18.522 18.522 0 0 1-.627-.193 5.247 5.247 0 0 1-.586-.228 2.674 2.674 0 0 1-.434-.247c-.113-.082-.17-.158-.17-.228a.44.44 0 0 1 .13-.287c.085-.098.187-.188.304-.27a2 2 0 0 1 .37-.205.864.864 0 0 1 .322-.082c.117 0 .24.028.369.082a4.8 4.8 0 0 1 .392.188c.149.078.3.148.451.21.153.063.311.094.475.094.125 0 .197-.043.217-.129.02-.085.03-.183.03-.292a2.17 2.17 0 0 0-.142-.78 4.022 4.022 0 0 0-.363-.72 5.518 5.518 0 0 0-.515-.686 136.95 136.95 0 0 0-.586-.662c-.203-.219-.4-.438-.592-.656a5.763 5.763 0 0 1-.51-.674 3.658 3.658 0 0 1-.357-.71c-.09-.241-.135-.5-.135-.773 0-.336.074-.638.223-.908.148-.27.341-.502.58-.697.238-.195.507-.346.808-.451.301-.106.604-.158.908-.158a3.891 3.891 0 0 1 1.09.246c.203.078.383.171.54.28.156.11.234.231.234.364z" fill="#365710"/><path d="M139.262 315.452a.533.533 0 0 1-.308.17.777.777 0 0 1-.332-.024 1.25 1.25 0 0 1-.323-.15 1.697 1.697 0 0 1-.263-.203 1.424 1.424 0 0 1-.44-.831 2.69 2.69 0 0 1 .05-1c.081-.351.216-.71.407-1.075a13.135 13.135 0 0 1 1.28-2.001c.227-.29.425-.537.594-.74a46.221 46.221 0 0 1 1.791-2.12 76.39 76.39 0 0 1 1.897-2.037 104.622 104.622 0 0 1 5.369-5.18c.027-.029.06-.058.097-.09a64.126 64.126 0 0 0 .622-.591 21.27 21.27 0 0 1 1.136-1.02c.17-.14.3-.23.39-.265l-.01.01a.7.7 0 0 1 .329-.11c.097-.001.205.056.324.171.253.244.386.536.399.874.012.338-.103.633-.348.886a3.415 3.415 0 0 1-.326.296 3.06 3.06 0 0 0-.275.243c-.286.254-.565.51-.836.771-.272.26-.547.52-.826.781a87.183 87.183 0 0 0-3.606 3.523c-.25.26-.576.604-.976 1.032a74.315 74.315 0 0 0-2.677 3.036c-.47.564-.904 1.116-1.302 1.654-.398.539-.74 1.044-1.025 1.515-.286.471-.47.87-.554 1.196.036.09.055.192.057.31.002.117-.01.235-.035.353a1.986 1.986 0 0 1-.108.343.867.867 0 0 1-.172.273zm9.336.075c-.59.611-1.23 1.171-1.919 1.68a7.007 7.007 0 0 1-2.29 1.118 5.343 5.343 0 0 1-.79.143 4.263 4.263 0 0 1-.813.01 2.734 2.734 0 0 1-.78-.184 2.039 2.039 0 0 1-.671-.434 2.055 2.055 0 0 1-.598-.994 2.868 2.868 0 0 1-.04-1.139 4.79 4.79 0 0 1 .362-1.198c.18-.403.39-.79.632-1.16a13.237 13.237 0 0 1 1.47-1.849c.245-.253.523-.52.836-.802a13.6 13.6 0 0 1 1.006-.82 12 12 0 0 1 1.116-.735c.387-.224.78-.404 1.182-.539a4.667 4.667 0 0 1 1.208-.238c.404-.025.797.025 1.179.15l-.01.01c.34.098.622.256.847.473.14.135.22.27.24.405.02.134-.042.268-.185.402.319.443.452.931.399 1.464a4.653 4.653 0 0 1-.465 1.588 8.503 8.503 0 0 1-.927 1.487c-.361.466-.691.853-.99 1.162zm.162-4.934a.705.705 0 0 1-.205-.463c-.33.075-.668.2-1.014.375a7.988 7.988 0 0 0-1 .603c-.32.227-.626.47-.919.731-.292.26-.557.514-.795.76-.196.204-.439.475-.726.815-.288.34-.558.7-.81 1.082a7 7 0 0 0-.622 1.15c-.163.386-.22.73-.174 1.034.34.084.716.056 1.128-.082a5.92 5.92 0 0 0 1.223-.58 9.02 9.02 0 0 0 1.14-.834c.357-.307.651-.58.882-.818.17-.176.38-.414.63-.716.25-.301.491-.621.724-.96.232-.34.426-.678.583-1.015.156-.338.229-.634.217-.89a1.028 1.028 0 0 1-.262-.192zm5.18 10.093c-.59.611-1.23 1.171-1.918 1.68a7.007 7.007 0 0 1-2.291 1.118 5.344 5.344 0 0 1-.79.143 4.263 4.263 0 0 1-.813.01 2.734 2.734 0 0 1-.78-.184c-.25-.1-.474-.244-.67-.434-.31-.298-.51-.63-.598-.994a2.868 2.868 0 0 1-.041-1.139 4.79 4.79 0 0 1 .362-1.198 8.2 8.2 0 0 1 .633-1.16 13.237 13.237 0 0 1 1.47-1.849c.244-.253.522-.52.835-.802a13.6 13.6 0 0 1 1.006-.82c.358-.266.73-.51 1.117-.735.386-.224.78-.404 1.182-.539a4.667 4.667 0 0 1 1.208-.238c.403-.025.796.025 1.178.15l-.01.01c.34.098.622.256.847.473.14.135.22.27.24.405.02.134-.042.268-.184.402.318.443.451.931.398 1.464a4.653 4.653 0 0 1-.464 1.588 8.503 8.503 0 0 1-.927 1.487c-.362.466-.692.853-.99 1.162zm.162-4.934a.705.705 0 0 1-.204-.463c-.33.075-.669.2-1.014.376a7.988 7.988 0 0 0-1 .602c-.32.227-.627.47-.92.731-.292.26-.557.514-.794.76-.197.204-.44.476-.727.815-.287.34-.557.7-.81 1.082a7 7 0 0 0-.622 1.15c-.162.386-.22.73-.173 1.034.34.084.715.056 1.127-.082a5.92 5.92 0 0 0 1.223-.58 9.02 9.02 0 0 0 1.14-.834c.358-.307.652-.58.882-.818.17-.176.38-.414.63-.716.25-.3.492-.621.724-.96.232-.34.427-.677.583-1.015.157-.338.23-.634.218-.89a1.028 1.028 0 0 1-.263-.192zm.524 8.652c-.325.337-.625.644-.9.922-.275.277-.568.591-.88.942l.322.046.187.039a5.77 5.77 0 0 0 1.873-.137 9.148 9.148 0 0 0 1.863-.654 11.22 11.22 0 0 0 3.477-2.62 3.82 3.82 0 0 0 .385-.493c.114-.175.196-.343.245-.507.049-.163.02-.295-.085-.397-.168-.163-.439-.227-.811-.193a5.61 5.61 0 0 0-1.192.254c-.423.135-.83.287-1.225.456a17.018 17.018 0 0 0-.925.42c-.004-.003-.009-.001-.015.006l-.01.01c-.138.058-.283.121-.438.19a1.884 1.884 0 0 0-.394.23 5.511 5.511 0 0 0-.353.3 9.38 9.38 0 0 0-.382.375c-.067.07-.132.14-.193.21-.06.07-.118.134-.172.19a5.735 5.735 0 0 0-.204.221c-.06.07-.118.133-.173.19zm-8.72 10.19c-.15.155-.294.22-.432.194-.139-.025-.278-.105-.419-.241a3.123 3.123 0 0 1-.482-.618 1.275 1.275 0 0 1-.205-.758c.012-.083.118-.26.317-.529.2-.27.439-.577.72-.924.28-.347.574-.7.882-1.062.308-.361.577-.682.807-.962l.497-.6a111.96 111.96 0 0 1 4.229-4.631 96.378 96.378 0 0 1 2.545-2.541c.85-.816 1.712-1.643 2.589-2.48l1.11-1.066a16.7 16.7 0 0 1 .326-.326c.109-.106.224-.201.347-.286a.85.85 0 0 1 .34-.089c.104-.002.216.055.335.17.302.292.437.595.404.91a1.665 1.665 0 0 1-.393.893 3.665 3.665 0 0 1 1.518.04c.49.12.937.376 1.345.77.344.332.56.689.645 1.07a2.44 2.44 0 0 1-.011 1.14 3.664 3.664 0 0 1-.483 1.102 6.227 6.227 0 0 1-.76.966 13.136 13.136 0 0 1-1.75 1.517c-.631.457-1.3.843-2.006 1.16-.705.316-1.439.551-2.199.706a8.454 8.454 0 0 1-2.655.114 3.993 3.993 0 0 1-.395-.076 2.707 2.707 0 0 1-.38-.123.9.9 0 0 1-.288-.176.514.514 0 0 1-.15-.246.888.888 0 0 1-.025-.27 114.748 114.748 0 0 0-2.819 3.215 61.31 61.31 0 0 0-1.37 1.681 35.943 35.943 0 0 0-1.239 1.674 7.34 7.34 0 0 1-.222.346c-.08.119-.172.23-.274.336z" fill="#E01090"/><path d="M459.992 225.89c0 .102-.05.2-.152.294a1.56 1.56 0 0 1-.363.246c-.141.07-.284.127-.428.17a1.29 1.29 0 0 1-.346.064.87.87 0 0 1-.445-.123 1.831 1.831 0 0 1-.393-.31 4.154 4.154 0 0 1-.34-.399 9.694 9.694 0 0 1-1.29-2.303 13.415 13.415 0 0 1-.62-2.056 16.315 16.315 0 0 1-.316-2.139 26.743 26.743 0 0 1-.088-2.162c0-.735.041-1.527.123-2.379.082-.852.223-1.7.422-2.543.2-.844.463-1.65.79-2.42a7.81 7.81 0 0 1 1.22-2.01c.039-.047.088-.101.146-.164.059-.062.121-.123.188-.181.066-.059.134-.11.205-.153a.402.402 0 0 1 .468.024.866.866 0 0 1 .206.222c.058.09.105.186.14.287a.838.838 0 0 1 .053.27c0 .086-.04.21-.117.375a7.69 7.69 0 0 1-.276.521c-.105.184-.209.36-.31.528-.102.168-.18.303-.235.404a10.856 10.856 0 0 0-.591 1.617c-.16.57-.291 1.155-.393 1.752a18.733 18.733 0 0 0-.217 1.787 23.73 23.73 0 0 0 .012 3.65c.05.669.14 1.335.27 1.999.128.664.306 1.31.533 1.94a8.48 8.48 0 0 0 .855 1.74c.133.203.268.386.404.55.137.164.307.317.51.457.07.063.15.125.24.188.09.062.135.148.135.258zm1.137-.702c-.117 0-.244-.016-.381-.047a1.377 1.377 0 0 1-.387-.153 1.047 1.047 0 0 1-.304-.263.602.602 0 0 1-.123-.381c0-.219.01-.436.029-.65.02-.215.04-.428.064-.64v.012l.07-.785c.024-.281.044-.59.06-.926a80.3 80.3 0 0 0 .081-2.976c0-.164-.002-.33-.006-.498a21.928 21.928 0 0 1-.005-.51 9.554 9.554 0 0 1-.012-.498v-.51c0-.164.021-.299.064-.404.043-.105.166-.158.37-.158.18 0 .369.047.568.14a.816.816 0 0 1 .416.399h-.012c.04.086.068.224.088.416.02.191.033.361.041.51.133-.204.283-.418.451-.645a5.27 5.27 0 0 1 .545-.627c.195-.191.402-.35.621-.474.219-.125.453-.188.703-.188.328 0 .578.082.75.246.172.164.297.37.375.615a2.9 2.9 0 0 1 .13.786c.007.277.01.529.01.755v.094c0 .094-.001.186-.005.276a.81.81 0 0 1-.047.246.378.378 0 0 1-.14.181.47.47 0 0 1-.276.07 1.645 1.645 0 0 1-.79-.21 1.126 1.126 0 0 1-.311-.264.624.624 0 0 1-.141-.37v-.187c0-.062.004-.125.012-.187 0-.04.002-.088.006-.147.003-.058.005-.115.005-.17-.25.25-.47.559-.662.926a10.01 10.01 0 0 0-.515 1.172c-.153.414-.283.83-.393 1.248-.11.418-.203.795-.281 1.131v.035c-.024.242-.04.48-.047.715l-.023.727a67.16 67.16 0 0 1-.03.855c-.011.29-.033.57-.064.844a.594.594 0 0 1-.135.345c-.074.082-.197.124-.37.124zm9.223-2.333c0 .235-.065.477-.194.727s-.295.479-.498.686a2.65 2.65 0 0 1-.697.51 1.71 1.71 0 0 1-.78.199c-.367 0-.683-.073-.949-.217a2.25 2.25 0 0 1-.691-.586 3.194 3.194 0 0 1-.475-.838 6.26 6.26 0 0 1-.287-.967 7.956 7.956 0 0 1-.146-.996 11.144 11.144 0 0 1-.041-.908 9.965 9.965 0 0 1 .181-1.828 7.29 7.29 0 0 1 .276-1.02 3.96 3.96 0 0 1 .44-.902c.175-.266.386-.48.632-.645.246-.164.53-.246.85-.246.25 0 .474.051.673.153.2.101.368.236.504.404.137.168.243.361.317.58.074.219.111.445.111.68 0 .304-.07.636-.21.996a5.53 5.53 0 0 1-.546 1.043 5.491 5.491 0 0 1-.75.908c-.277.27-.552.474-.826.615.016.14.047.346.094.615.047.27.111.537.193.803s.18.496.293.691c.113.196.248.293.404.293a.319.319 0 0 0 .206-.07.693.693 0 0 0 .158-.187 1.54 1.54 0 0 0 .123-.258l.1-.27.07-.164a.573.573 0 0 0 .029-.047l.018-.035c.054-.101.107-.195.158-.281a.691.691 0 0 1 .217-.223h-.012a.167.167 0 0 1 .1-.052.6.6 0 0 1 .38.076c.102.054.196.123.282.205.086.082.156.172.21.27a.585.585 0 0 1 .083.286zm-2.32-5.167c0-.079-.005-.16-.012-.247a.62.62 0 0 0-.06-.222 2.07 2.07 0 0 0-.286.474c-.082.184-.15.375-.205.575a7.074 7.074 0 0 0-.21 1.166c.202-.243.382-.518.538-.827.156-.308.234-.615.234-.92zm4.476 4.265c0 .375-.002.719-.006 1.031-.004.313.002.657.018 1.032l.21-.153.13-.082a4.617 4.617 0 0 0 1.001-1.119 7.35 7.35 0 0 0 .71-1.412 8.976 8.976 0 0 0 .545-3.44 3.034 3.034 0 0 0-.053-.498 1.572 1.572 0 0 0-.141-.427c-.063-.121-.152-.182-.27-.182-.187 0-.379.113-.574.34a4.488 4.488 0 0 0-.545.809c-.168.312-.318.627-.451.943a13.615 13.615 0 0 0-.299.756c-.004 0-.006.004-.006.012v.011a20.1 20.1 0 0 0-.146.352 1.57 1.57 0 0 0-.1.351c-.015.11-.027.233-.035.37a7.505 7.505 0 0 0-.006.656c.004.074.006.142.006.205 0 .086.002.166.006.24.004.074.006.143.006.205zm.644 10.711c0 .172-.047.29-.14.352a.666.666 0 0 1-.375.093c-.188 0-.395-.029-.621-.088a1.02 1.02 0 0 1-.54-.322c-.038-.054-.076-.215-.11-.48a21.672 21.672 0 0 1-.1-.932 42.66 42.66 0 0 1-.082-1.101 53.23 53.23 0 0 0-.07-1.002l-.048-.621a89.568 89.568 0 0 1-.14-5.016c0-.977.017-1.936.053-2.877.035-.941.072-1.897.11-2.865l.048-1.23c0-.126.002-.249.006-.37a2.12 2.12 0 0 1 .04-.357.68.68 0 0 1 .147-.24c.059-.06.154-.088.287-.088.336 0 .582.1.738.298.157.2.247.444.27.733.25-.344.549-.617.896-.82a2.337 2.337 0 0 1 1.202-.305c.382 0 .705.086.966.258.262.171.471.392.627.662.157.27.268.57.334.902.067.332.1.658.1.979 0 .617-.055 1.232-.164 1.845a9.022 9.022 0 0 1-.51 1.782 8.381 8.381 0 0 1-.873 1.628 6.764 6.764 0 0 1-1.465 1.541 3.195 3.195 0 0 1-.27.176 1.988 1.988 0 0 1-.286.14.72.72 0 0 1-.264.06.412.412 0 0 1-.223-.06.71.71 0 0 1-.164-.14 91.8 91.8 0 0 0 .164 3.416c.04.582.088 1.158.147 1.729.058.57.13 1.12.217 1.652.023.102.045.21.064.322.02.114.03.229.03.346zm9.399-12.469c0 .68-.057 1.358-.17 2.034a5.605 5.605 0 0 1-.697 1.916c-.11.18-.235.353-.375.521a3.41 3.41 0 0 1-.463.457 2.187 2.187 0 0 1-.551.328 1.63 1.63 0 0 1-.627.123c-.344 0-.643-.08-.897-.24a2.295 2.295 0 0 1-.656-.633 3.822 3.822 0 0 1-.457-.89 6.566 6.566 0 0 1-.281-1.02 10.59 10.59 0 0 1-.146-2.807 10.527 10.527 0 0 1 .357-2.074c.098-.344.224-.666.38-.967.157-.3.344-.57.563-.808.219-.239.473-.428.762-.569v.012c.25-.133.5-.2.75-.2.156 0 .277.034.363.1.086.067.125.178.117.334.43.079.778.286 1.043.622.266.336.471.726.616 1.171.144.446.242.903.293 1.372.05.468.076.875.076 1.218zm-2.649-2.93a.564.564 0 0 1-.375-.152 3.519 3.519 0 0 0-.375.78 6.39 6.39 0 0 0-.24.902c-.058.309-.1.62-.123.932a11.79 11.79 0 0 0-.035.878c0 .227.012.518.035.874.024.355.068.712.135 1.072.066.36.16.695.281 1.008.121.312.28.543.475.691.242-.14.443-.365.603-.674.16-.308.287-.646.381-1.013.094-.368.158-.739.193-1.114.036-.375.053-.695.053-.96 0-.196-.012-.45-.035-.762a10.553 10.553 0 0 0-.117-.956 5.612 5.612 0 0 0-.229-.908c-.097-.281-.22-.492-.369-.633a.822.822 0 0 1-.258.036zm4.582 7.923a1.72 1.72 0 0 1-.38-.047 1.377 1.377 0 0 1-.387-.153 1.047 1.047 0 0 1-.305-.263.602.602 0 0 1-.123-.381c0-.219.01-.436.03-.65.019-.215.04-.428.064-.64v.012l.07-.785c.024-.281.043-.59.059-.926a80.282 80.282 0 0 0 .082-2.976c0-.164-.002-.33-.006-.498a21.923 21.923 0 0 1-.006-.51 9.554 9.554 0 0 1-.012-.498v-.51c0-.164.022-.299.065-.404.043-.105.166-.158.369-.158.18 0 .369.047.568.14.2.094.338.227.416.399h-.011c.039.086.068.224.087.416.02.191.034.361.041.51.133-.204.284-.418.452-.645.168-.226.35-.435.545-.627.195-.191.402-.35.62-.474.22-.125.454-.188.704-.188.328 0 .578.082.75.246.172.164.297.37.375.615.078.246.12.508.129.786.007.277.011.529.011.755v.094c0 .094-.002.186-.005.276a.81.81 0 0 1-.047.246.378.378 0 0 1-.141.181.47.47 0 0 1-.275.07 1.645 1.645 0 0 1-.791-.21 1.126 1.126 0 0 1-.31-.264.624.624 0 0 1-.142-.37v-.187c0-.062.004-.125.012-.187 0-.04.002-.088.006-.147.004-.058.006-.115.006-.17-.25.25-.47.559-.662.926-.192.367-.363.758-.516 1.172-.152.414-.283.83-.392 1.248-.11.418-.204.795-.282 1.131v.035c-.023.242-.039.48-.047.715l-.023.727c-.008.28-.018.566-.03.855-.011.29-.032.57-.064.844a.594.594 0 0 1-.134.345c-.075.082-.198.124-.37.124zm7.278-.481a.382.382 0 0 1-.205.352.628.628 0 0 1-.188.064c-.066.012-.13.018-.193.018a2.003 2.003 0 0 1-.633-.117 1.417 1.417 0 0 1-.299-.147.603.603 0 0 1-.205-.217c-.047-.078-.088-.224-.123-.44a9.548 9.548 0 0 1-.088-.75c-.023-.284-.043-.59-.058-.913-.016-.325-.03-.635-.041-.932a35.14 35.14 0 0 1-.03-1.336c0-.547.01-1.076.03-1.588.019-.512.04-1.037.064-1.576a.596.596 0 0 0-.117.012.596.596 0 0 1-.117.011 3.971 3.971 0 0 1-.633.047.83.83 0 0 1-.352-.07c-.101-.047-.152-.152-.152-.316 0-.196.043-.352.129-.47a.899.899 0 0 1 .328-.275 1.57 1.57 0 0 1 .433-.14 6.755 6.755 0 0 1 .504-.07.122.122 0 0 1 .047-.006c.008-.094.016-.21.024-.346.008-.137.015-.287.023-.451.008-.258.02-.533.035-.826l.047-.844c.016-.27.035-.508.059-.715.023-.207.047-.353.07-.44a.904.904 0 0 1 .135-.246c.05-.062.146-.093.287-.093.312 0 .555.101.727.304.171.204.257.454.257.75 0 .344-.01.688-.029 1.032-.02.343-.037.691-.053 1.043l-.035.597c.195-.023.39-.058.586-.105.188-.04.377-.074.568-.106a3.61 3.61 0 0 1 .557-.047c.156 0 .277.041.363.124.086.082.13.2.13.357 0 .172-.032.34-.094.504a.701.701 0 0 1-.329.375h.012a1.51 1.51 0 0 1-.281.064 9.694 9.694 0 0 1-.533.076l-.586.07c-.192.024-.334.04-.428.048h-.012a74.667 74.667 0 0 0-.047 2.59c0 .601.018 1.24.053 1.916.035.675.096 1.318.182 1.927l.094.528c.03.132.058.263.082.392.023.13.035.256.035.381zm6.34-1.852c0 .235-.065.477-.194.727s-.295.479-.498.686a2.65 2.65 0 0 1-.697.51 1.71 1.71 0 0 1-.78.199c-.367 0-.683-.073-.949-.217a2.25 2.25 0 0 1-.691-.586 3.194 3.194 0 0 1-.475-.838 6.26 6.26 0 0 1-.287-.967 7.956 7.956 0 0 1-.146-.996 11.144 11.144 0 0 1-.041-.908 9.965 9.965 0 0 1 .181-1.828 7.29 7.29 0 0 1 .276-1.02 3.96 3.96 0 0 1 .44-.902c.175-.266.386-.48.632-.645.246-.164.53-.246.85-.246.25 0 .474.051.673.153.2.101.368.236.504.404.137.168.243.361.317.58.074.219.111.445.111.68 0 .304-.07.636-.21.996a5.53 5.53 0 0 1-.546 1.043 5.491 5.491 0 0 1-.75.908c-.277.27-.552.474-.826.615.016.14.047.346.094.615.047.27.111.537.193.803s.18.496.293.691c.113.196.248.293.404.293a.319.319 0 0 0 .206-.07.693.693 0 0 0 .158-.187 1.54 1.54 0 0 0 .123-.258l.1-.27.07-.164a.573.573 0 0 0 .029-.047l.018-.035c.054-.101.107-.195.158-.281a.691.691 0 0 1 .217-.223h-.012a.167.167 0 0 1 .1-.052.6.6 0 0 1 .38.076c.102.054.196.123.282.205.086.082.156.172.21.27a.585.585 0 0 1 .083.286zm-2.32-5.167c0-.079-.005-.16-.012-.247a.62.62 0 0 0-.06-.222 2.07 2.07 0 0 0-.286.474c-.082.184-.15.375-.205.575a7.074 7.074 0 0 0-.21 1.166c.202-.243.382-.518.538-.827.156-.308.234-.615.234-.92zm3.948 7.5a1.72 1.72 0 0 1-.38-.047 1.377 1.377 0 0 1-.387-.153 1.047 1.047 0 0 1-.305-.263.602.602 0 0 1-.123-.381c0-.219.01-.436.03-.65.019-.215.04-.428.064-.64v.012l.07-.785c.024-.281.043-.59.059-.926a80.282 80.282 0 0 0 .082-2.976c0-.164-.002-.33-.006-.498a21.928 21.928 0 0 1-.006-.51 9.553 9.553 0 0 1-.012-.498v-.51c0-.164.022-.299.065-.404.043-.105.166-.158.369-.158.18 0 .37.047.568.14.2.094.338.227.416.399h-.011c.039.086.068.224.088.416.02.191.033.361.04.51.133-.204.284-.418.452-.645.168-.226.35-.435.545-.627.195-.191.402-.35.62-.474.22-.125.454-.188.704-.188.328 0 .578.082.75.246.172.164.297.37.375.615.078.246.121.508.129.786.008.277.012.529.012.755v.094c0 .094-.002.186-.006.276a.81.81 0 0 1-.047.246.378.378 0 0 1-.14.181.47.47 0 0 1-.276.07 1.645 1.645 0 0 1-.791-.21 1.126 1.126 0 0 1-.31-.264.624.624 0 0 1-.141-.37v-.187c0-.062.003-.125.011-.187 0-.04.002-.088.006-.147.004-.058.006-.115.006-.17-.25.25-.47.559-.662.926-.192.367-.363.758-.516 1.172-.152.414-.283.83-.392 1.248-.11.418-.203.795-.282 1.131v.035c-.023.242-.039.48-.046.715l-.024.727a67.16 67.16 0 0 1-.03.855c-.01.29-.032.57-.064.844a.594.594 0 0 1-.134.345c-.075.082-.198.124-.37.124zm7.711-8.415c0 .727-.04 1.514-.123 2.362a18.99 18.99 0 0 1-.422 2.537c-.199.844-.462 1.65-.79 2.42a7.811 7.811 0 0 1-1.366 2.18 1.759 1.759 0 0 1-.193.187c-.07.059-.14.107-.211.146a.412.412 0 0 1-.2.06.445.445 0 0 1-.263-.089.821.821 0 0 1-.21-.222 1.162 1.162 0 0 1-.136-.282.906.906 0 0 1-.047-.275c0-.086.04-.211.118-.375a9.68 9.68 0 0 1 .27-.522c.1-.183.202-.359.304-.527.101-.168.176-.303.223-.404.234-.5.433-1.035.597-1.606.164-.57.297-1.154.399-1.752a20.06 20.06 0 0 0 .222-1.793c.047-.597.07-1.17.07-1.716 0-.618-.025-1.262-.076-1.934-.05-.672-.14-1.34-.27-2.004a12.65 12.65 0 0 0-.532-1.928 8.584 8.584 0 0 0-.856-1.728 13.34 13.34 0 0 0-.41-.563 2.242 2.242 0 0 0-.504-.468 2.03 2.03 0 0 0-.24-.182.294.294 0 0 1-.135-.264c0-.101.05-.199.152-.293.102-.093.221-.175.358-.246.137-.07.275-.127.416-.17a1.23 1.23 0 0 1 .34-.064c.156 0 .306.04.451.123.144.082.277.185.398.31s.233.258.334.399a10.513 10.513 0 0 1 1.283 2.309c.27.671.481 1.359.633 2.062.153.703.26 1.418.323 2.144.062.727.093 1.45.093 2.168z" fill="#0002FF"/></g></svg>